<?xml version="1.0" encoding="UTF-8"?>
<mxfile host="Electron" agent="Mozilla/5.0 (X11; Linux x86_64) AppleWebKit/537.36 (KHTML, like Gecko) draw.io/26.0.9 Chrome/128.0.6613.186 Electron/32.2.5 Safari/537.36" version="26.0.9">
  <diagram name="Page-1" id="8RDz3zVBGRYJQNGO7uR-">
    <mxGraphModel dx="6660" dy="6824" grid="1" gridSize="10" guides="1" tooltips="1" connect="1" arrows="1" fold="1" page="1" pageScale="1" pageWidth="1169" pageHeight="827" background="none" math="1" shadow="0">
      <root>
        <mxCell id="0" />
        <mxCell id="1" parent="0" />
        <mxCell id="2" value="" style="group" vertex="1" connectable="0" parent="1">
          <mxGeometry x="9100" y="-798" width="1173" height="505" as="geometry" />
        </mxCell>
        <mxCell id="3" value="" style="edgeStyle=none;orthogonalLoop=1;jettySize=auto;html=1;labelBackgroundColor=none;fontSize=10;startArrow=openThin;startFill=0;endArrow=openThin;endFill=0;curved=1;dashed=1;rounded=0;strokeColor=light-dark(#FF3333,#FF3333);strokeWidth=2;" edge="1" parent="2">
          <mxGeometry width="80" relative="1" as="geometry">
            <mxPoint x="83" y="401.74" as="sourcePoint" />
            <mxPoint x="83.5" y="248.25" as="targetPoint" />
            <Array as="points" />
          </mxGeometry>
        </mxCell>
        <mxCell id="4" value="&lt;div&gt;&lt;i&gt;&amp;nbsp;&amp;nbsp;&amp;nbsp;&amp;nbsp;&amp;nbsp;&amp;nbsp;&lt;/i&gt;&lt;/div&gt;&lt;div&gt;&lt;i&gt;&lt;br&gt;&lt;/i&gt;&lt;/div&gt;&lt;div&gt;&lt;i&gt;&lt;br&gt;&lt;/i&gt;&lt;/div&gt;&lt;div&gt;&lt;i&gt;&lt;br&gt;&lt;/i&gt;&lt;/div&gt;&lt;div&gt;&lt;i&gt;&lt;br&gt;&lt;/i&gt;&lt;/div&gt;&lt;div&gt;&lt;i&gt;&amp;nbsp;&amp;nbsp;&amp;nbsp;&amp;nbsp;&amp;nbsp;&amp;nbsp;&amp;nbsp;&amp;nbsp;&lt;/i&gt;&lt;/div&gt;&lt;div&gt;&lt;i&gt;&amp;nbsp;&amp;nbsp;&amp;nbsp;&amp;nbsp;&amp;nbsp;&amp;nbsp;&amp;nbsp;&amp;nbsp; V&lt;sub&gt;AC&lt;/sub&gt;&lt;/i&gt;&lt;/div&gt;" style="edgeLabel;html=1;align=center;verticalAlign=middle;resizable=0;points=[];fontSize=15;labelBackgroundColor=none;fontColor=light-dark(#FF3333,#FF3333);" connectable="0" vertex="1" parent="3">
          <mxGeometry x="0.52" y="-1" relative="1" as="geometry">
            <mxPoint x="-1" y="-21" as="offset" />
          </mxGeometry>
        </mxCell>
        <mxCell id="5" value="V&lt;sub&gt;1Low&lt;/sub&gt;" style="text;html=1;align=center;verticalAlign=middle;resizable=0;points=[];autosize=1;strokeColor=none;fillColor=none;fontSize=20;fontStyle=1;rounded=0;strokeWidth=2;" vertex="1" parent="2">
          <mxGeometry x="88" y="168.25" width="80" height="40" as="geometry" />
        </mxCell>
        <mxCell id="6" value="V&lt;sub&gt;2Low&lt;/sub&gt;" style="text;html=1;align=center;verticalAlign=middle;resizable=0;points=[];autosize=1;strokeColor=none;fillColor=none;fontSize=20;fontStyle=1;rounded=0;strokeWidth=2;" vertex="1" parent="2">
          <mxGeometry x="88" y="217.25" width="80" height="40" as="geometry" />
        </mxCell>
        <mxCell id="7" value="R" style="text;html=1;align=center;verticalAlign=middle;resizable=0;points=[];autosize=1;strokeColor=none;fillColor=none;fontSize=20;fontStyle=1;rounded=0;strokeWidth=2;" vertex="1" parent="2">
          <mxGeometry y="308.25" width="40" height="40" as="geometry" />
        </mxCell>
        <mxCell id="8" value="i&lt;sub&gt;2Low&lt;/sub&gt;" style="text;html=1;align=center;verticalAlign=middle;resizable=0;points=[];autosize=1;strokeColor=none;fillColor=none;fontStyle=2;rounded=0;strokeWidth=2;" vertex="1" parent="2">
          <mxGeometry x="548" y="259.92999999999995" width="50" height="30" as="geometry" />
        </mxCell>
        <mxCell id="9" value="V&lt;sub&gt;1Low&lt;/sub&gt;" style="text;html=1;align=center;verticalAlign=middle;resizable=0;points=[];autosize=1;strokeColor=none;fillColor=none;fontStyle=2;rounded=0;strokeWidth=2;" vertex="1" parent="2">
          <mxGeometry x="138" y="360" width="60" height="30" as="geometry" />
        </mxCell>
        <mxCell id="10" value="C&lt;sub&gt;High&lt;/sub&gt;" style="text;html=1;align=center;verticalAlign=middle;resizable=0;points=[];autosize=1;strokeColor=none;fillColor=none;fontSize=20;fontStyle=1;rounded=0;strokeWidth=2;" vertex="1" parent="2">
          <mxGeometry x="869" y="213.25" width="70" height="40" as="geometry" />
        </mxCell>
        <mxCell id="11" value="C&lt;sub&gt;1Low&lt;/sub&gt;" style="text;html=1;align=center;verticalAlign=middle;resizable=0;points=[];autosize=1;strokeColor=none;fillColor=none;fontSize=20;fontStyle=1;rounded=0;strokeWidth=2;" vertex="1" parent="2">
          <mxGeometry x="252" y="314.0000000000001" width="80" height="40" as="geometry" />
        </mxCell>
        <mxCell id="12" value="L&lt;sub&gt;1&lt;/sub&gt;" style="text;html=1;align=center;verticalAlign=middle;resizable=0;points=[];autosize=1;strokeColor=none;fillColor=none;fontSize=20;fontStyle=1;rounded=0;strokeWidth=2;" vertex="1" parent="2">
          <mxGeometry x="608" y="168.25" width="40" height="40" as="geometry" />
        </mxCell>
        <mxCell id="13" value="L&lt;sub&gt;2&lt;/sub&gt;" style="text;html=1;align=center;verticalAlign=middle;resizable=0;points=[];autosize=1;strokeColor=none;fillColor=none;fontSize=20;fontStyle=1;rounded=0;strokeWidth=2;" vertex="1" parent="2">
          <mxGeometry x="608" y="215.25" width="40" height="40" as="geometry" />
        </mxCell>
        <mxCell id="14" value="GND" style="text;html=1;align=center;verticalAlign=middle;resizable=0;points=[];autosize=1;strokeColor=none;fillColor=none;fontSize=20;fontStyle=1;rounded=0;strokeWidth=2;" vertex="1" parent="2">
          <mxGeometry x="93" y="401.25" width="70" height="40" as="geometry" />
        </mxCell>
        <mxCell id="15" value="GND" style="text;html=1;align=center;verticalAlign=middle;resizable=0;points=[];autosize=1;strokeColor=none;fillColor=none;fontSize=20;fontStyle=1;rounded=0;strokeWidth=2;" vertex="1" parent="2">
          <mxGeometry x="1056" y="402.5" width="70" height="40" as="geometry" />
        </mxCell>
        <mxCell id="16" value="V&lt;sub&gt;High&lt;/sub&gt;" style="text;html=1;align=center;verticalAlign=middle;resizable=0;points=[];autosize=1;strokeColor=none;fillColor=none;fontStyle=2;rounded=0;strokeWidth=2;" vertex="1" parent="2">
          <mxGeometry x="956" y="253.25" width="50" height="30" as="geometry" />
        </mxCell>
        <mxCell id="17" value="i&lt;sub&gt;High&lt;/sub&gt;" style="text;html=1;align=center;verticalAlign=middle;resizable=0;points=[];autosize=1;strokeColor=none;fillColor=none;fontStyle=2;rounded=0;strokeWidth=2;" vertex="1" parent="2">
          <mxGeometry x="1006" y="70" width="50" height="30" as="geometry" />
        </mxCell>
        <mxCell id="18" value="Q&lt;sub&gt;5&lt;/sub&gt;" style="text;html=1;align=center;verticalAlign=middle;resizable=0;points=[];autosize=1;strokeColor=none;fillColor=none;fontSize=20;fontStyle=1;rounded=0;strokeWidth=2;" vertex="1" parent="2">
          <mxGeometry x="217" y="322.75" width="50" height="40" as="geometry" />
        </mxCell>
        <mxCell id="19" value="" style="shape=waypoint;fillStyle=solid;size=6;pointerEvents=1;points=[];fillColor=none;resizable=0;rotatable=0;perimeter=centerPerimeter;snapToPoint=1;strokeColor=none;rounded=0;strokeWidth=2;" vertex="1" parent="2">
          <mxGeometry x="165" y="237.25" width="20" height="20" as="geometry" />
        </mxCell>
        <mxCell id="20" value="" style="verticalLabelPosition=bottom;shadow=0;dashed=0;align=center;html=1;verticalAlign=top;strokeWidth=2;shape=ellipse;perimeter=ellipsePerimeter;rounded=0;fillColor=none;aspect=fixed;" vertex="1" parent="2">
          <mxGeometry x="140" y="202.5" width="15" height="15" as="geometry" />
        </mxCell>
        <mxCell id="21" value="" style="verticalLabelPosition=bottom;shadow=0;dashed=0;align=center;html=1;verticalAlign=top;strokeWidth=2;shape=ellipse;perimeter=ellipsePerimeter;rounded=0;fillColor=none;aspect=fixed;" vertex="1" parent="2">
          <mxGeometry x="140" y="252" width="15" height="15" as="geometry" />
        </mxCell>
        <mxCell id="22" value="" style="verticalLabelPosition=bottom;shadow=0;dashed=0;align=center;html=1;verticalAlign=top;strokeWidth=2;shape=ellipse;perimeter=ellipsePerimeter;rounded=0;fillColor=none;" vertex="1" parent="2">
          <mxGeometry x="138" y="442.5" width="15" height="15" as="geometry" />
        </mxCell>
        <mxCell id="23" value="" style="verticalLabelPosition=bottom;shadow=0;dashed=0;align=center;html=1;verticalAlign=top;strokeWidth=2;shape=ellipse;perimeter=ellipsePerimeter;rounded=0;fillColor=none;" vertex="1" parent="2">
          <mxGeometry x="1083.5" y="52.5" width="15" height="15" as="geometry" />
        </mxCell>
        <mxCell id="24" value="" style="verticalLabelPosition=bottom;shadow=0;dashed=0;align=center;html=1;verticalAlign=top;strokeWidth=2;shape=ellipse;perimeter=ellipsePerimeter;rounded=0;fillColor=none;" vertex="1" parent="2">
          <mxGeometry x="1085" y="442.75" width="15" height="15" as="geometry" />
        </mxCell>
        <mxCell id="25" value="i&lt;sub&gt;1Low&lt;/sub&gt;" style="text;html=1;align=center;verticalAlign=middle;resizable=0;points=[];autosize=1;strokeColor=none;fillColor=none;fontStyle=2;rounded=0;strokeWidth=2;" vertex="1" parent="2">
          <mxGeometry x="548" y="175.75" width="50" height="30" as="geometry" />
        </mxCell>
        <mxCell id="26" value="+" style="text;html=1;align=center;verticalAlign=middle;resizable=0;points=[];autosize=1;strokeColor=none;fillColor=none;strokeWidth=2;fontStyle=1;rounded=0;" vertex="1" parent="2">
          <mxGeometry x="534" y="243" width="30" height="30" as="geometry" />
        </mxCell>
        <mxCell id="27" value="V&lt;sub&gt;2Low&lt;/sub&gt;" style="text;html=1;align=center;verticalAlign=middle;resizable=0;points=[];autosize=1;strokeColor=none;fillColor=none;fontStyle=2;rounded=0;strokeWidth=2;" vertex="1" parent="2">
          <mxGeometry x="322" y="360" width="60" height="30" as="geometry" />
        </mxCell>
        <mxCell id="28" value="" style="shape=waypoint;fillStyle=solid;size=6;pointerEvents=1;points=[];fillColor=none;resizable=0;rotatable=0;perimeter=centerPerimeter;snapToPoint=1;strokeColor=none;rounded=0;strokeWidth=2;" vertex="1" parent="2">
          <mxGeometry x="166" y="256.25" width="20" height="20" as="geometry" />
        </mxCell>
        <mxCell id="29" value="" style="pointerEvents=1;verticalLabelPosition=middle;shadow=0;dashed=0;align=left;html=1;verticalAlign=top;shape=mxgraph.electrical.capacitors.capacitor_2;spacing=0;labelPosition=center;spacingTop=10;spacingLeft=25;fillColor=none;rotation=90;strokeWidth=2;" vertex="1" parent="2">
          <mxGeometry x="232" y="300" width="60" height="20" as="geometry" />
        </mxCell>
        <mxCell id="30" value="" style="pointerEvents=1;verticalLabelPosition=middle;shadow=0;dashed=0;align=left;html=1;verticalAlign=top;shape=mxgraph.electrical.capacitors.capacitor_1;labelPosition=center;spacingBottom=0;spacingLeft=25;direction=east;spacing=0;spacingTop=10;points=[[0,0.5,0,0,0],[0.5,0,0,0,-3],[0.5,1,0,0,2],[1,0.5,0,0,0]];fillColor=none;rotation=90;strokeWidth=2;" vertex="1" parent="2">
          <mxGeometry x="292" y="301.75" width="60" height="20" as="geometry" />
        </mxCell>
        <mxCell id="31" value="" style="shape=waypoint;sketch=0;fillStyle=solid;size=6;pointerEvents=1;points=[];fillColor=none;resizable=0;rotatable=0;perimeter=centerPerimeter;snapToPoint=1;strokeWidth=2;" vertex="1" parent="2">
          <mxGeometry x="278" y="419.75" width="20" height="20" as="geometry" />
        </mxCell>
        <mxCell id="32" value="" style="edgeStyle=orthogonalEdgeStyle;orthogonalLoop=1;jettySize=auto;html=1;rounded=0;exitX=1;exitY=0.5;exitDx=0;exitDy=0;exitPerimeter=0;endArrow=none;startFill=0;entryX=0.903;entryY=0.529;entryDx=0;entryDy=0;entryPerimeter=0;strokeWidth=2;" edge="1" parent="2" source="30" target="31">
          <mxGeometry width="100" relative="1" as="geometry">
            <mxPoint x="282" y="390" as="sourcePoint" />
            <mxPoint x="298" y="430" as="targetPoint" />
            <Array as="points">
              <mxPoint x="322" y="430" />
            </Array>
          </mxGeometry>
        </mxCell>
        <mxCell id="33" value="" style="edgeStyle=elbowEdgeStyle;orthogonalLoop=1;jettySize=auto;html=1;rounded=0;exitX=1;exitY=1;exitDx=0;exitDy=0;entryX=0.5;entryY=0.512;entryDx=0;entryDy=0;entryPerimeter=0;endArrow=none;startFill=0;elbow=vertical;strokeWidth=2;" edge="1" parent="2" source="72">
          <mxGeometry width="100" relative="1" as="geometry">
            <mxPoint x="256" y="400" as="sourcePoint" />
            <mxPoint x="292" y="429.75" as="targetPoint" />
          </mxGeometry>
        </mxCell>
        <mxCell id="34" value="" style="shape=waypoint;sketch=0;fillStyle=solid;size=6;pointerEvents=1;points=[];fillColor=none;resizable=0;rotatable=0;perimeter=centerPerimeter;snapToPoint=1;strokeWidth=2;" vertex="1" parent="2">
          <mxGeometry x="280" y="262" width="20" height="20" as="geometry" />
        </mxCell>
        <mxCell id="35" value="" style="edgeStyle=elbowEdgeStyle;orthogonalLoop=1;jettySize=auto;html=1;rounded=0;entryX=0.647;entryY=0.122;entryDx=0;entryDy=0;entryPerimeter=0;endArrow=none;startFill=0;exitX=0.31;exitY=0.969;exitDx=0;exitDy=0;exitPerimeter=0;jumpStyle=arc;strokeWidth=2;" edge="1" parent="2" source="36" target="34">
          <mxGeometry width="100" relative="1" as="geometry">
            <mxPoint x="316" y="219.99999999999955" as="sourcePoint" />
            <mxPoint x="316" y="279.99999999999955" as="targetPoint" />
          </mxGeometry>
        </mxCell>
        <mxCell id="36" value="" style="shape=waypoint;sketch=0;fillStyle=solid;size=6;pointerEvents=1;points=[];fillColor=none;resizable=0;rotatable=0;perimeter=centerPerimeter;snapToPoint=1;strokeWidth=2;" vertex="1" parent="2">
          <mxGeometry x="280" y="200" width="20" height="20" as="geometry" />
        </mxCell>
        <mxCell id="37" value="" style="edgeStyle=elbowEdgeStyle;orthogonalLoop=1;jettySize=auto;html=1;rounded=0;endArrow=none;startFill=0;exitDx=0;exitDy=0;jumpStyle=arc;strokeWidth=2;elbow=vertical;" edge="1" parent="2" source="75">
          <mxGeometry width="100" relative="1" as="geometry">
            <mxPoint x="277.9500000000007" y="181" as="sourcePoint" />
            <mxPoint x="290" y="211" as="targetPoint" />
          </mxGeometry>
        </mxCell>
        <mxCell id="38" value="" style="shape=waypoint;sketch=0;fillStyle=solid;size=6;pointerEvents=1;points=[];fillColor=none;resizable=0;rotatable=0;perimeter=centerPerimeter;snapToPoint=1;strokeWidth=2;" vertex="1" parent="2">
          <mxGeometry x="369" y="250" width="20" height="20" as="geometry" />
        </mxCell>
        <mxCell id="39" value="" style="edgeStyle=elbowEdgeStyle;orthogonalLoop=1;jettySize=auto;html=1;rounded=0;entryX=0.5;entryY=0;entryDx=0;entryDy=0;entryPerimeter=0;endArrow=none;startFill=0;jumpStyle=arc;strokeWidth=2;" edge="1" parent="2" target="128">
          <mxGeometry width="100" relative="1" as="geometry">
            <mxPoint x="379" y="259" as="sourcePoint" />
            <mxPoint x="332" y="300" as="targetPoint" />
          </mxGeometry>
        </mxCell>
        <mxCell id="40" value="" style="shape=waypoint;sketch=0;fillStyle=solid;size=6;pointerEvents=1;points=[];fillColor=none;resizable=0;rotatable=0;perimeter=centerPerimeter;snapToPoint=1;strokeWidth=2;" vertex="1" parent="2">
          <mxGeometry x="369" y="440" width="20" height="20" as="geometry" />
        </mxCell>
        <mxCell id="41" value="" style="edgeStyle=elbowEdgeStyle;orthogonalLoop=1;jettySize=auto;html=1;rounded=0;entryX=0.627;entryY=0.002;entryDx=0;entryDy=0;entryPerimeter=0;endArrow=none;startFill=0;exitX=0.5;exitY=1;exitDx=0;exitDy=0;exitPerimeter=0;jumpStyle=arc;strokeWidth=2;" edge="1" parent="2" source="128" target="40">
          <mxGeometry width="100" relative="1" as="geometry">
            <mxPoint x="389" y="269" as="sourcePoint" />
            <mxPoint x="389" y="340" as="targetPoint" />
          </mxGeometry>
        </mxCell>
        <mxCell id="42" value="" style="edgeStyle=elbowEdgeStyle;orthogonalLoop=1;jettySize=auto;html=1;rounded=0;entryX=0.367;entryY=0.484;entryDx=0;entryDy=0;entryPerimeter=0;endArrow=none;startFill=0;exitDx=0;exitDy=0;jumpStyle=arc;strokeWidth=2;" edge="1" parent="2" source="45" target="40">
          <mxGeometry width="100" relative="1" as="geometry">
            <mxPoint x="375" y="279" as="sourcePoint" />
            <mxPoint x="375" y="350" as="targetPoint" />
          </mxGeometry>
        </mxCell>
        <mxCell id="43" value="" style="edgeStyle=elbowEdgeStyle;orthogonalLoop=1;jettySize=auto;html=1;rounded=0;endArrow=none;startFill=0;exitX=0.532;exitY=1.003;exitDx=0;exitDy=0;exitPerimeter=0;jumpStyle=arc;entryX=0.631;entryY=0.447;entryDx=0;entryDy=0;entryPerimeter=0;strokeWidth=2;" edge="1" parent="2" source="31" target="45">
          <mxGeometry width="100" relative="1" as="geometry">
            <mxPoint x="385" y="289" as="sourcePoint" />
            <mxPoint x="312" y="440" as="targetPoint" />
          </mxGeometry>
        </mxCell>
        <mxCell id="44" value="" style="edgeStyle=elbowEdgeStyle;orthogonalLoop=1;jettySize=auto;html=1;rounded=0;entryDx=0;entryDy=0;entryPerimeter=0;endArrow=none;startFill=0;exitDx=0;exitDy=0;jumpStyle=arc;strokeWidth=2;" edge="1" parent="2" source="47" target="45">
          <mxGeometry width="100" relative="1" as="geometry">
            <mxPoint x="153" y="450" as="sourcePoint" />
            <mxPoint x="331" y="450" as="targetPoint" />
          </mxGeometry>
        </mxCell>
        <mxCell id="45" value="" style="shape=waypoint;sketch=0;fillStyle=solid;size=6;pointerEvents=1;points=[];fillColor=none;resizable=0;rotatable=0;perimeter=centerPerimeter;snapToPoint=1;strokeWidth=2;" vertex="1" parent="2">
          <mxGeometry x="278" y="439.75" width="20" height="20" as="geometry" />
        </mxCell>
        <mxCell id="46" value="" style="edgeStyle=elbowEdgeStyle;orthogonalLoop=1;jettySize=auto;html=1;rounded=0;entryDx=0;entryDy=0;entryPerimeter=0;endArrow=none;startFill=0;exitX=1;exitY=0.5;exitDx=0;exitDy=0;jumpStyle=arc;strokeWidth=2;" edge="1" parent="2" source="22" target="47">
          <mxGeometry width="100" relative="1" as="geometry">
            <mxPoint x="153" y="450" as="sourcePoint" />
            <mxPoint x="264" y="450" as="targetPoint" />
          </mxGeometry>
        </mxCell>
        <mxCell id="47" value="" style="shape=waypoint;sketch=0;fillStyle=solid;size=6;pointerEvents=1;points=[];fillColor=none;resizable=0;rotatable=0;perimeter=centerPerimeter;snapToPoint=1;strokeWidth=2;" vertex="1" parent="2">
          <mxGeometry x="190" y="440" width="20" height="20" as="geometry" />
        </mxCell>
        <mxCell id="48" value="" style="group;strokeWidth=2;" connectable="0" vertex="1" parent="2">
          <mxGeometry x="180" y="320" width="40" height="50" as="geometry" />
        </mxCell>
        <mxCell id="49" value="+" style="text;html=1;align=center;verticalAlign=middle;resizable=0;points=[];autosize=1;strokeColor=none;fillColor=none;fontStyle=1;rounded=0;" vertex="1" parent="48">
          <mxGeometry x="5" width="30" height="30" as="geometry" />
        </mxCell>
        <mxCell id="50" value="V" style="verticalLabelPosition=middle;shadow=0;dashed=0;align=center;html=1;verticalAlign=middle;strokeWidth=2;shape=ellipse;aspect=fixed;fontSize=20;spacing=0;spacingBottom=2;points=[[0,0.5,0,0,0],[0.5,0,0,0,0],[0.5,1,0,0,0],[1,0.5,0,0,0]];fillColor=none;" vertex="1" parent="48">
          <mxGeometry y="10" width="40" height="40" as="geometry" />
        </mxCell>
        <mxCell id="51" value="" style="edgeStyle=elbowEdgeStyle;orthogonalLoop=1;jettySize=auto;html=1;rounded=0;entryX=0.5;entryY=0;entryDx=0;entryDy=0;entryPerimeter=0;endArrow=none;startFill=0;jumpStyle=arc;exitX=0.509;exitY=0.645;exitDx=0;exitDy=0;exitPerimeter=0;strokeWidth=2;" edge="1" parent="2" source="75" target="50">
          <mxGeometry width="100" relative="1" as="geometry">
            <mxPoint x="198" y="280" as="sourcePoint" />
            <mxPoint x="162.63999999999942" y="373.5" as="targetPoint" />
          </mxGeometry>
        </mxCell>
        <mxCell id="52" value="" style="edgeStyle=elbowEdgeStyle;orthogonalLoop=1;jettySize=auto;html=1;rounded=0;entryX=0.554;entryY=0.102;entryDx=0;entryDy=0;entryPerimeter=0;endArrow=none;startFill=0;exitX=0.5;exitY=1;exitDx=0;exitDy=0;exitPerimeter=0;jumpStyle=arc;strokeWidth=2;" edge="1" parent="2" source="50" target="47">
          <mxGeometry width="100" relative="1" as="geometry">
            <mxPoint x="207" y="269" as="sourcePoint" />
            <mxPoint x="207" y="340" as="targetPoint" />
          </mxGeometry>
        </mxCell>
        <mxCell id="53" value="" style="edgeStyle=orthogonalEdgeStyle;rounded=0;orthogonalLoop=1;jettySize=auto;html=1;endArrow=none;startFill=0;strokeWidth=2;" edge="1" parent="2" source="54" target="88">
          <mxGeometry relative="1" as="geometry" />
        </mxCell>
        <mxCell id="54" value="A" style="verticalLabelPosition=middle;shadow=0;dashed=0;align=center;html=1;verticalAlign=middle;strokeWidth=2;shape=ellipse;aspect=fixed;fontSize=20;spacing=0;spacingBottom=2;spacingTop=0;points=[[0,0.5,0,0,0],[0.5,0,0,0,0],[0.5,1,0,0,0],[1,0.5,0,0,0]];fillColor=none;" vertex="1" parent="2">
          <mxGeometry x="520" y="240" width="40" height="40" as="geometry" />
        </mxCell>
        <mxCell id="55" value="A" style="verticalLabelPosition=middle;shadow=0;dashed=0;align=center;html=1;verticalAlign=middle;strokeWidth=2;shape=ellipse;aspect=fixed;fontSize=20;spacing=0;spacingBottom=2;spacingTop=0;points=[[0,0.5,0,0,0],[0.5,0,0,0,0],[0.5,1,0,0,0],[1,0.5,0,0,0]];fillColor=none;" vertex="1" parent="2">
          <mxGeometry x="520" y="190" width="40" height="40" as="geometry" />
        </mxCell>
        <mxCell id="56" value="+" style="text;html=1;align=center;verticalAlign=middle;resizable=0;points=[];autosize=1;strokeColor=none;fillColor=none;strokeWidth=2;fontStyle=1;rounded=0;" vertex="1" parent="2">
          <mxGeometry x="534" y="198.75" width="30" height="30" as="geometry" />
        </mxCell>
        <mxCell id="57" value="" style="pointerEvents=1;verticalLabelPosition=middle;shadow=0;dashed=0;align=left;html=1;verticalAlign=top;shape=mxgraph.electrical.inductors.inductor_3;labelPosition=center;spacingBottom=0;spacingLeft=25;direction=east;spacing=0;spacingTop=0;points=[[0,1,0,0,0],[0.5,1,0,0,0],[1,1,0,0,0]];fillColor=none;strokeWidth=2;" vertex="1" parent="2">
          <mxGeometry x="600" y="200" width="60" height="10" as="geometry" />
        </mxCell>
        <mxCell id="58" value="" style="pointerEvents=1;verticalLabelPosition=middle;shadow=0;dashed=0;align=left;html=1;verticalAlign=top;shape=mxgraph.electrical.inductors.inductor_3;labelPosition=center;spacingBottom=0;spacingLeft=25;direction=east;spacing=0;spacingTop=0;points=[[0,1,0,0,0],[0.5,1,0,0,0],[1,1,0,0,0]];fillColor=none;strokeWidth=2;" vertex="1" parent="2">
          <mxGeometry x="598" y="250" width="60" height="10" as="geometry" />
        </mxCell>
        <mxCell id="59" value="" style="edgeStyle=elbowEdgeStyle;orthogonalLoop=1;jettySize=auto;html=1;rounded=0;endArrow=none;startFill=0;jumpStyle=arc;elbow=vertical;entryX=1;entryY=0.5;entryDx=0;entryDy=0;entryPerimeter=0;exitX=0;exitY=1;exitDx=0;exitDy=0;exitPerimeter=0;strokeWidth=2;" edge="1" parent="2" source="57" target="55">
          <mxGeometry width="100" relative="1" as="geometry">
            <mxPoint x="598" y="216" as="sourcePoint" />
            <mxPoint x="558" y="219" as="targetPoint" />
          </mxGeometry>
        </mxCell>
        <mxCell id="60" value="" style="edgeStyle=elbowEdgeStyle;orthogonalLoop=1;jettySize=auto;html=1;rounded=0;entryX=1;entryY=0.5;entryDx=0;entryDy=0;entryPerimeter=0;endArrow=none;startFill=0;exitX=0;exitY=1;exitDx=0;exitDy=0;exitPerimeter=0;jumpStyle=arc;elbow=vertical;strokeWidth=2;" edge="1" parent="2" source="58" target="54">
          <mxGeometry width="100" relative="1" as="geometry">
            <mxPoint x="589.8199999999997" y="255.25" as="sourcePoint" />
            <mxPoint x="589.8199999999997" y="318.25" as="targetPoint" />
          </mxGeometry>
        </mxCell>
        <mxCell id="61" value="" style="edgeStyle=orthogonalEdgeStyle;rounded=0;orthogonalLoop=1;jettySize=auto;html=1;entryX=0.56;entryY=0.719;entryDx=0;entryDy=0;entryPerimeter=0;strokeWidth=2;endArrow=none;startFill=0;" edge="1" parent="2" source="63" target="110">
          <mxGeometry relative="1" as="geometry">
            <mxPoint x="949.9999999999982" y="140" as="targetPoint" />
          </mxGeometry>
        </mxCell>
        <mxCell id="62" value="" style="edgeStyle=orthogonalEdgeStyle;rounded=0;orthogonalLoop=1;jettySize=auto;html=1;endArrow=none;startFill=0;strokeWidth=2;entryX=0.121;entryY=0.325;entryDx=0;entryDy=0;entryPerimeter=0;" edge="1" parent="2" source="63" target="104">
          <mxGeometry relative="1" as="geometry">
            <mxPoint x="950" y="340" as="targetPoint" />
          </mxGeometry>
        </mxCell>
        <mxCell id="63" value="" style="pointerEvents=1;verticalLabelPosition=middle;shadow=0;dashed=0;align=left;html=1;verticalAlign=top;shape=mxgraph.electrical.capacitors.capacitor_1;labelPosition=center;spacingBottom=0;spacingLeft=25;direction=east;spacing=0;spacingTop=10;points=[[0,0.5,0,0,0],[0.5,0,0,0,-3],[0.5,1,0,0,2],[1,0.5,0,0,0]];fillColor=none;rotation=90;strokeWidth=2;" vertex="1" parent="2">
          <mxGeometry x="920" y="230" width="60" height="20" as="geometry" />
        </mxCell>
        <mxCell id="64" value="" style="group;strokeWidth=2;" connectable="0" vertex="1" parent="2">
          <mxGeometry x="222" y="350" width="63" height="80" as="geometry" />
        </mxCell>
        <mxCell id="65" value="" style="ellipse;whiteSpace=wrap;html=1;fillColor=none;strokeWidth=2;strokeColor=default;container=0;" vertex="1" parent="64">
          <mxGeometry x="6" y="12.75" width="57" height="57" as="geometry" />
        </mxCell>
        <mxCell id="66" value="" style="shape=stencil(rZRNbsMgEIVPw7bC4GZf0fYexJnEKAQsoEl7+2CPLYU4Rv7pxtK8Jz5mHmDCha9lA4TRmvBPwhij8RPLG5ZlX0rfQBVQu0qn5F4DOj44e4abOoSeoEwNToXW5V+EfpAWSQkXlTUmQpQ1PnEe/AiTysS19Bdh/fZ/ffX2jnUTd7hAAId6gSph37PBxRYwF1GZGoeLvazOJ2d/zOFlO41soxoZg32xV3jo8ykBmht1QGhlphFsBYKniGIWotLWQ+ZYoj6KolMn8uPiaB1kgj0qrfE6ZnZdlP6asbPhz0OkTbBdgiiXN/FE2H4BthNWIcr/RhS75cex6i2kXZRLEK8fyuBN3vdu2ejBdCr+8jvhDg==);html=1;verticalAlign=top;align=left;spacingTop=10;spacing=0;spacingLeft=25;fillColor=none;flipV=1;rotation=-90;aspect=fixed;strokeWidth=2;container=0;" vertex="1" parent="64">
          <mxGeometry x="40" y="36" width="20" height="10" as="geometry" />
        </mxCell>
        <mxCell id="67" value="" style="edgeStyle=orthogonalEdgeStyle;orthogonalLoop=1;jettySize=auto;html=1;rounded=0;endArrow=none;startFill=0;entryX=1;entryY=0.5;entryDx=0;entryDy=0;strokeWidth=2;" edge="1" parent="64" source="68">
          <mxGeometry width="100" relative="1" as="geometry">
            <mxPoint x="40" y="26.75" as="sourcePoint" />
            <mxPoint x="50" y="35.75" as="targetPoint" />
          </mxGeometry>
        </mxCell>
        <mxCell id="68" value="" style="shape=waypoint;sketch=0;fillStyle=solid;size=6;pointerEvents=1;points=[];fillColor=none;resizable=0;rotatable=0;perimeter=centerPerimeter;snapToPoint=1;strokeColor=default;strokeWidth=1;container=0;" vertex="1" parent="64">
          <mxGeometry x="30" y="10" width="20" height="20" as="geometry" />
        </mxCell>
        <mxCell id="69" value="" style="edgeStyle=orthogonalEdgeStyle;orthogonalLoop=1;jettySize=auto;html=1;rounded=0;exitX=0;exitY=0.5;exitDx=0;exitDy=0;endArrow=none;startFill=0;strokeWidth=2;" edge="1" parent="64" target="70">
          <mxGeometry width="100" relative="1" as="geometry">
            <mxPoint x="50" y="50.75" as="sourcePoint" />
            <mxPoint x="50" y="71.75" as="targetPoint" />
            <Array as="points">
              <mxPoint x="50" y="60.75" />
            </Array>
          </mxGeometry>
        </mxCell>
        <mxCell id="70" value="" style="shape=waypoint;sketch=0;fillStyle=solid;size=6;pointerEvents=1;points=[];fillColor=none;resizable=0;rotatable=0;perimeter=centerPerimeter;snapToPoint=1;strokeColor=default;strokeWidth=1;container=0;" vertex="1" parent="64">
          <mxGeometry x="30" y="50.75" width="20" height="20" as="geometry" />
        </mxCell>
        <mxCell id="71" value="" style="edgeStyle=orthogonalEdgeStyle;orthogonalLoop=1;jettySize=auto;html=1;rounded=0;entryX=0.5;entryY=0.5;entryDx=0;entryDy=0;entryPerimeter=0;endArrow=block;endFill=0;strokeWidth=2;" edge="1" parent="64" source="70">
          <mxGeometry width="100" relative="1" as="geometry">
            <mxPoint x="-50" y="71.75" as="sourcePoint" />
            <mxPoint x="20" y="40.75" as="targetPoint" />
            <Array as="points">
              <mxPoint x="40" y="40.75" />
            </Array>
          </mxGeometry>
        </mxCell>
        <mxCell id="72" value="" style="shape=stencil(xZXbboMwDIafJrdTTu24nej6Hin1RlSaoJAe9vYLhFYlLGgjVJMQkv3jL45jHMTyphQ1IIoviG0QpRy7lzNLb2a9KZoaCut9Z2Gk2FXglcYafYCL3Ns+RKoSjLStyt4RfnPftA/LC62Ug0itmoHyoDuYkMrF4quH9ct/9dbLytu1W+EIFoz3E+9FdPtrMBmCn4MlS2HvGw8LEUJY7jyxQrN8J4rDp9EntR9HRbUPbeAH4S7LqvJNMLGpWrTtMRJu8lGfIXboazxVrxuhkuqBQF5nIIZJBAj6P1kEtSDZ37MIECw9C8aTs+Dr5CxWM04kbC2anMWcvuCLI9LPdM5fxhdHZJOIbkxFJom7yGIzqAsbDbHO6y+/zvEN);whiteSpace=wrap;html=1;strokeWidth=2;movable=1;resizable=1;rotatable=1;deletable=1;editable=1;locked=0;connectable=1;fillColor=none;" vertex="1" parent="64">
          <mxGeometry width="40" height="80" as="geometry" />
        </mxCell>
        <mxCell id="73" value="" style="edgeStyle=elbowEdgeStyle;orthogonalLoop=1;jettySize=auto;html=1;rounded=0;exitX=1;exitY=0.5;exitDx=0;exitDy=0;entryX=1;entryY=0;entryDx=0;entryDy=0;endArrow=none;startFill=0;elbow=vertical;exitPerimeter=0;strokeWidth=2;" edge="1" parent="2" source="29" target="72">
          <mxGeometry width="100" relative="1" as="geometry">
            <mxPoint x="272" y="440" as="sourcePoint" />
            <mxPoint x="302" y="439.75" as="targetPoint" />
          </mxGeometry>
        </mxCell>
        <mxCell id="74" value="&amp;nbsp;" style="edgeStyle=elbowEdgeStyle;orthogonalLoop=1;jettySize=auto;html=1;rounded=0;entryX=0.091;entryY=0.615;entryDx=0;entryDy=0;entryPerimeter=0;endArrow=none;startFill=0;jumpStyle=arc;exitX=1;exitY=0.5;exitDx=0;exitDy=0;strokeWidth=2;" edge="1" parent="2" source="21" target="38">
          <mxGeometry x="-0.0646" y="20" width="100" relative="1" as="geometry">
            <mxPoint x="197" y="259" as="sourcePoint" />
            <mxPoint x="261" y="257.88" as="targetPoint" />
            <mxPoint as="offset" />
          </mxGeometry>
        </mxCell>
        <mxCell id="75" value="" style="shape=waypoint;sketch=0;fillStyle=solid;size=6;pointerEvents=1;points=[];fillColor=none;resizable=0;rotatable=0;perimeter=centerPerimeter;snapToPoint=1;strokeWidth=2;" vertex="1" parent="2">
          <mxGeometry x="190" y="200" width="20" height="20" as="geometry" />
        </mxCell>
        <mxCell id="76" value="Q&lt;sub&gt;6&lt;/sub&gt;" style="text;html=1;align=center;verticalAlign=middle;resizable=0;points=[];autosize=1;strokeColor=none;fillColor=none;fontSize=20;fontStyle=1;rounded=0;strokeWidth=2;" vertex="1" parent="2">
          <mxGeometry x="397" y="322.5" width="50" height="40" as="geometry" />
        </mxCell>
        <mxCell id="77" value="" style="pointerEvents=1;verticalLabelPosition=middle;shadow=0;dashed=0;align=left;html=1;verticalAlign=top;shape=mxgraph.electrical.capacitors.capacitor_2;spacing=0;labelPosition=center;spacingTop=10;spacingLeft=25;fillColor=none;rotation=90;strokeWidth=2;" vertex="1" parent="2">
          <mxGeometry x="412" y="299.75" width="60" height="20" as="geometry" />
        </mxCell>
        <mxCell id="78" value="" style="pointerEvents=1;verticalLabelPosition=middle;shadow=0;dashed=0;align=left;html=1;verticalAlign=top;shape=mxgraph.electrical.capacitors.capacitor_1;labelPosition=center;spacingBottom=0;spacingLeft=25;direction=east;spacing=0;spacingTop=10;points=[[0,0.5,0,0,0],[0.5,0,0,0,-3],[0.5,1,0,0,2],[1,0.5,0,0,0]];fillColor=none;rotation=90;strokeWidth=2;" vertex="1" parent="2">
          <mxGeometry x="472" y="301.5" width="60" height="20" as="geometry" />
        </mxCell>
        <mxCell id="79" value="" style="shape=waypoint;sketch=0;fillStyle=solid;size=6;pointerEvents=1;points=[];fillColor=none;resizable=0;rotatable=0;perimeter=centerPerimeter;snapToPoint=1;strokeWidth=2;" vertex="1" parent="2">
          <mxGeometry x="458" y="419.5" width="20" height="20" as="geometry" />
        </mxCell>
        <mxCell id="80" value="" style="edgeStyle=orthogonalEdgeStyle;orthogonalLoop=1;jettySize=auto;html=1;rounded=0;exitX=1;exitY=0.5;exitDx=0;exitDy=0;exitPerimeter=0;entryX=0.667;entryY=0.587;entryDx=0;entryDy=0;entryPerimeter=0;endArrow=none;startFill=0;strokeWidth=2;" edge="1" parent="2" source="78" target="79">
          <mxGeometry width="100" relative="1" as="geometry">
            <mxPoint x="462" y="389.75" as="sourcePoint" />
            <mxPoint x="478" y="429.5" as="targetPoint" />
            <Array as="points">
              <mxPoint x="502" y="430" />
            </Array>
          </mxGeometry>
        </mxCell>
        <mxCell id="81" value="" style="edgeStyle=elbowEdgeStyle;orthogonalLoop=1;jettySize=auto;html=1;rounded=0;exitX=1;exitY=1;exitDx=0;exitDy=0;entryX=0.5;entryY=0.512;entryDx=0;entryDy=0;entryPerimeter=0;endArrow=none;startFill=0;elbow=vertical;strokeWidth=2;" edge="1" parent="2" source="170">
          <mxGeometry width="100" relative="1" as="geometry">
            <mxPoint x="436" y="399.75" as="sourcePoint" />
            <mxPoint x="472" y="429.5" as="targetPoint" />
          </mxGeometry>
        </mxCell>
        <mxCell id="82" value="" style="edgeStyle=elbowEdgeStyle;orthogonalLoop=1;jettySize=auto;html=1;rounded=0;endArrow=none;startFill=0;exitX=0.532;exitY=1.003;exitDx=0;exitDy=0;exitPerimeter=0;jumpStyle=arc;entryX=0.631;entryY=0.447;entryDx=0;entryDy=0;entryPerimeter=0;strokeWidth=2;" edge="1" parent="2" source="79" target="83">
          <mxGeometry width="100" relative="1" as="geometry">
            <mxPoint x="565" y="288.75" as="sourcePoint" />
            <mxPoint x="492" y="439.75" as="targetPoint" />
          </mxGeometry>
        </mxCell>
        <mxCell id="83" value="" style="shape=waypoint;sketch=0;fillStyle=solid;size=6;pointerEvents=1;points=[];fillColor=none;resizable=0;rotatable=0;perimeter=centerPerimeter;snapToPoint=1;strokeWidth=2;" vertex="1" parent="2">
          <mxGeometry x="458" y="439.5" width="20" height="20" as="geometry" />
        </mxCell>
        <mxCell id="84" value="" style="edgeStyle=elbowEdgeStyle;orthogonalLoop=1;jettySize=auto;html=1;rounded=0;exitX=1;exitY=0.5;exitDx=0;exitDy=0;entryX=1;entryY=0;entryDx=0;entryDy=0;endArrow=none;startFill=0;elbow=vertical;exitPerimeter=0;strokeWidth=2;" edge="1" parent="2" source="77" target="170">
          <mxGeometry width="100" relative="1" as="geometry">
            <mxPoint x="452" y="439.75" as="sourcePoint" />
            <mxPoint x="482" y="439.5" as="targetPoint" />
          </mxGeometry>
        </mxCell>
        <mxCell id="85" value="" style="edgeStyle=elbowEdgeStyle;orthogonalLoop=1;jettySize=auto;html=1;rounded=0;entryX=0.512;entryY=0.69;entryDx=0;entryDy=0;entryPerimeter=0;endArrow=none;startFill=0;exitDx=0;exitDy=0;jumpStyle=arc;exitX=0.515;exitY=0.641;exitPerimeter=0;strokeWidth=2;" edge="1" parent="2" source="40" target="83">
          <mxGeometry width="100" relative="1" as="geometry">
            <mxPoint x="427.5" y="490" as="sourcePoint" />
            <mxPoint x="518.5" y="490" as="targetPoint" />
          </mxGeometry>
        </mxCell>
        <mxCell id="86" value="" style="shape=waypoint;sketch=0;fillStyle=solid;size=6;pointerEvents=1;points=[];fillColor=none;resizable=0;rotatable=0;perimeter=centerPerimeter;snapToPoint=1;strokeWidth=2;" vertex="1" parent="2">
          <mxGeometry x="460" y="262" width="20" height="20" as="geometry" />
        </mxCell>
        <mxCell id="87" value="" style="edgeStyle=elbowEdgeStyle;orthogonalLoop=1;jettySize=auto;html=1;rounded=0;endArrow=none;startFill=0;exitDx=0;exitDy=0;jumpStyle=arc;exitX=0.412;exitY=0.138;exitPerimeter=0;strokeWidth=2;" edge="1" parent="2" source="86" target="88">
          <mxGeometry width="100" relative="1" as="geometry">
            <mxPoint x="389" y="460" as="sourcePoint" />
            <mxPoint x="478" y="459" as="targetPoint" />
          </mxGeometry>
        </mxCell>
        <mxCell id="88" value="" style="shape=waypoint;sketch=0;fillStyle=solid;size=6;pointerEvents=1;points=[];fillColor=none;resizable=0;rotatable=0;perimeter=centerPerimeter;snapToPoint=1;strokeWidth=2;" vertex="1" parent="2">
          <mxGeometry x="460" y="250" width="20" height="20" as="geometry" />
        </mxCell>
        <mxCell id="89" value="" style="edgeStyle=orthogonalEdgeStyle;orthogonalLoop=1;jettySize=auto;html=1;rounded=0;endArrow=none;startFill=0;jumpStyle=arc;entryX=0.662;entryY=0.548;entryDx=0;entryDy=0;entryPerimeter=0;exitX=0;exitY=0.5;exitDx=0;exitDy=0;exitPerimeter=0;strokeWidth=2;" edge="1" parent="2" source="55" target="36">
          <mxGeometry width="100" relative="1" as="geometry">
            <mxPoint x="508" y="217" as="sourcePoint" />
            <mxPoint x="488" y="279" as="targetPoint" />
          </mxGeometry>
        </mxCell>
        <mxCell id="90" value="" style="shape=waypoint;sketch=0;fillStyle=solid;size=6;pointerEvents=1;points=[];fillColor=none;resizable=0;rotatable=0;perimeter=centerPerimeter;snapToPoint=1;strokeWidth=2;" vertex="1" parent="2">
          <mxGeometry x="703" y="200" width="20" height="20" as="geometry" />
        </mxCell>
        <mxCell id="91" value="" style="shape=waypoint;sketch=0;fillStyle=solid;size=6;pointerEvents=1;points=[];fillColor=none;resizable=0;rotatable=0;perimeter=centerPerimeter;snapToPoint=1;strokeWidth=2;" vertex="1" parent="2">
          <mxGeometry x="863" y="250.25" width="20" height="20" as="geometry" />
        </mxCell>
        <mxCell id="92" value="" style="edgeStyle=elbowEdgeStyle;orthogonalLoop=1;jettySize=auto;html=1;rounded=0;endArrow=none;startFill=0;jumpStyle=arc;elbow=vertical;entryX=1;entryY=1;entryDx=0;entryDy=0;entryPerimeter=0;strokeWidth=2;" edge="1" parent="2" source="90" target="57">
          <mxGeometry width="100" relative="1" as="geometry">
            <mxPoint x="703" y="226.75" as="sourcePoint" />
            <mxPoint x="667" y="226.75" as="targetPoint" />
            <Array as="points">
              <mxPoint x="690" y="210" />
            </Array>
          </mxGeometry>
        </mxCell>
        <mxCell id="93" value="" style="edgeStyle=elbowEdgeStyle;orthogonalLoop=1;jettySize=auto;html=1;rounded=0;endArrow=none;startFill=0;jumpStyle=arc;elbow=vertical;entryX=1;entryY=1;entryDx=0;entryDy=0;exitX=0.634;exitY=0.467;exitDx=0;exitDy=0;exitPerimeter=0;strokeWidth=2;" edge="1" parent="2" source="90" target="143">
          <mxGeometry width="100" relative="1" as="geometry">
            <mxPoint x="723" y="226" as="sourcePoint" />
            <mxPoint x="668" y="226" as="targetPoint" />
          </mxGeometry>
        </mxCell>
        <mxCell id="94" value="" style="edgeStyle=elbowEdgeStyle;orthogonalLoop=1;jettySize=auto;html=1;rounded=0;endArrow=none;startFill=0;jumpStyle=arc;elbow=vertical;entryX=0.607;entryY=0.423;entryDx=0;entryDy=0;exitX=1;exitY=0;exitDx=0;exitDy=0;entryPerimeter=0;strokeWidth=2;" edge="1" parent="2" source="152" target="90">
          <mxGeometry width="100" relative="1" as="geometry">
            <mxPoint x="738" y="270" as="sourcePoint" />
            <mxPoint x="723" y="194.25" as="targetPoint" />
          </mxGeometry>
        </mxCell>
        <mxCell id="95" value="" style="edgeStyle=elbowEdgeStyle;orthogonalLoop=1;jettySize=auto;html=1;rounded=0;endArrow=none;startFill=0;jumpStyle=arc;elbow=vertical;exitX=0.529;exitY=0.355;exitDx=0;exitDy=0;exitPerimeter=0;entryX=1;entryY=1;entryDx=0;entryDy=0;entryPerimeter=0;strokeWidth=2;" edge="1" parent="2" source="91" target="58">
          <mxGeometry x="0.3636" width="100" relative="1" as="geometry">
            <mxPoint x="884" y="253.5" as="sourcePoint" />
            <mxPoint x="668" y="260" as="targetPoint" />
            <Array as="points">
              <mxPoint x="748" y="260" />
            </Array>
            <mxPoint as="offset" />
          </mxGeometry>
        </mxCell>
        <mxCell id="96" value="" style="edgeStyle=elbowEdgeStyle;orthogonalLoop=1;jettySize=auto;html=1;rounded=0;endArrow=none;startFill=0;jumpStyle=arc;elbow=vertical;entryX=1;entryY=1;entryDx=0;entryDy=0;exitX=0.445;exitY=0.389;exitDx=0;exitDy=0;exitPerimeter=0;strokeWidth=2;" edge="1" parent="2" source="91" target="179">
          <mxGeometry width="100" relative="1" as="geometry">
            <mxPoint x="863" y="224.25" as="sourcePoint" />
            <mxPoint x="808" y="224.25" as="targetPoint" />
            <Array as="points">
              <mxPoint x="838" y="224.25" />
            </Array>
          </mxGeometry>
        </mxCell>
        <mxCell id="97" value="" style="edgeStyle=elbowEdgeStyle;orthogonalLoop=1;jettySize=auto;html=1;rounded=0;endArrow=none;startFill=0;jumpStyle=arc;elbow=vertical;entryX=0.91;entryY=0.682;entryDx=0;entryDy=0;exitX=1;exitY=0;exitDx=0;exitDy=0;entryPerimeter=0;strokeWidth=2;" edge="1" parent="2" source="188" target="91">
          <mxGeometry width="100" relative="1" as="geometry">
            <mxPoint x="883" y="270" as="sourcePoint" />
            <mxPoint x="883" y="187" as="targetPoint" />
            <Array as="points">
              <mxPoint x="848" y="234.25" />
            </Array>
          </mxGeometry>
        </mxCell>
        <mxCell id="98" value="" style="shape=waypoint;sketch=0;fillStyle=solid;size=6;pointerEvents=1;points=[];fillColor=none;resizable=0;rotatable=0;perimeter=centerPerimeter;snapToPoint=1;strokeWidth=2;" vertex="1" parent="2">
          <mxGeometry x="703" y="440" width="20" height="20" as="geometry" />
        </mxCell>
        <mxCell id="99" value="" style="shape=waypoint;sketch=0;fillStyle=solid;size=6;pointerEvents=1;points=[];fillColor=none;resizable=0;rotatable=0;perimeter=centerPerimeter;snapToPoint=1;strokeWidth=2;" vertex="1" parent="2">
          <mxGeometry x="863" y="439.5" width="20" height="20" as="geometry" />
        </mxCell>
        <mxCell id="100" value="" style="edgeStyle=elbowEdgeStyle;orthogonalLoop=1;jettySize=auto;html=1;rounded=0;endArrow=none;startFill=0;exitDx=0;exitDy=0;jumpStyle=arc;exitX=0.342;exitY=0.529;exitPerimeter=0;strokeWidth=2;" edge="1" parent="2" source="83" target="98">
          <mxGeometry width="100" relative="1" as="geometry">
            <mxPoint x="548" y="476.75" as="sourcePoint" />
            <mxPoint x="637" y="475.75" as="targetPoint" />
          </mxGeometry>
        </mxCell>
        <mxCell id="101" value="" style="edgeStyle=elbowEdgeStyle;orthogonalLoop=1;jettySize=auto;html=1;rounded=0;endArrow=none;startFill=0;exitDx=0;exitDy=0;jumpStyle=arc;exitX=1;exitY=1;strokeWidth=2;" edge="1" parent="2" source="152">
          <mxGeometry width="100" relative="1" as="geometry">
            <mxPoint x="478" y="459" as="sourcePoint" />
            <mxPoint x="713" y="450" as="targetPoint" />
          </mxGeometry>
        </mxCell>
        <mxCell id="102" value="" style="edgeStyle=elbowEdgeStyle;orthogonalLoop=1;jettySize=auto;html=1;rounded=0;endArrow=none;startFill=0;exitDx=0;exitDy=0;jumpStyle=arc;exitX=0.654;exitY=0.858;exitPerimeter=0;entryX=0.321;entryY=0.15;entryDx=0;entryDy=0;entryPerimeter=0;strokeWidth=2;" edge="1" parent="2" source="98" target="99">
          <mxGeometry width="100" relative="1" as="geometry">
            <mxPoint x="750.5" y="496.25" as="sourcePoint" />
            <mxPoint x="995.5" y="497.25" as="targetPoint" />
          </mxGeometry>
        </mxCell>
        <mxCell id="103" value="" style="edgeStyle=elbowEdgeStyle;orthogonalLoop=1;jettySize=auto;html=1;rounded=0;endArrow=none;startFill=0;exitDx=0;exitDy=0;jumpStyle=arc;exitX=1;exitY=1;entryX=0.404;entryY=0.342;entryDx=0;entryDy=0;entryPerimeter=0;strokeWidth=2;" edge="1" parent="2" source="188" target="99">
          <mxGeometry width="100" relative="1" as="geometry">
            <mxPoint x="723" y="460" as="sourcePoint" />
            <mxPoint x="883" y="459" as="targetPoint" />
          </mxGeometry>
        </mxCell>
        <mxCell id="104" value="" style="shape=waypoint;sketch=0;fillStyle=solid;size=6;pointerEvents=1;points=[];fillColor=none;resizable=0;rotatable=0;perimeter=centerPerimeter;snapToPoint=1;strokeWidth=2;" vertex="1" parent="2">
          <mxGeometry x="940" y="440" width="20" height="20" as="geometry" />
        </mxCell>
        <mxCell id="105" value="" style="edgeStyle=elbowEdgeStyle;orthogonalLoop=1;jettySize=auto;html=1;rounded=0;endArrow=none;startFill=0;exitDx=0;exitDy=0;jumpStyle=arc;exitX=0.696;exitY=0.633;exitPerimeter=0;strokeWidth=2;" edge="1" parent="2" source="99">
          <mxGeometry width="100" relative="1" as="geometry">
            <mxPoint x="723" y="460" as="sourcePoint" />
            <mxPoint x="948" y="450" as="targetPoint" />
          </mxGeometry>
        </mxCell>
        <mxCell id="106" value="" style="edgeStyle=elbowEdgeStyle;orthogonalLoop=1;jettySize=auto;html=1;rounded=0;endArrow=none;startFill=0;jumpStyle=arc;exitDx=0;exitDy=0;exitPerimeter=0;entryX=0;entryY=0.5;entryDx=0;entryDy=0;strokeWidth=2;" edge="1" parent="2" source="118" target="24">
          <mxGeometry width="100" relative="1" as="geometry">
            <mxPoint x="883" y="460" as="sourcePoint" />
            <mxPoint x="958" y="460" as="targetPoint" />
          </mxGeometry>
        </mxCell>
        <mxCell id="107" value="" style="shape=waypoint;sketch=0;fillStyle=solid;size=6;pointerEvents=1;points=[];fillColor=none;resizable=0;rotatable=0;perimeter=centerPerimeter;snapToPoint=1;strokeWidth=2;" vertex="1" parent="2">
          <mxGeometry x="863" y="50" width="20" height="20" as="geometry" />
        </mxCell>
        <mxCell id="108" value="" style="edgeStyle=elbowEdgeStyle;orthogonalLoop=1;jettySize=auto;html=1;rounded=0;endArrow=none;startFill=0;jumpStyle=arc;exitX=1;exitY=0;exitDx=0;exitDy=0;entryX=0.3;entryY=0.5;entryDx=0;entryDy=0;entryPerimeter=0;strokeWidth=2;" edge="1" parent="2" source="179" target="107">
          <mxGeometry width="100" relative="1" as="geometry">
            <mxPoint x="848" y="97.25" as="sourcePoint" />
            <mxPoint x="848" y="60.25" as="targetPoint" />
          </mxGeometry>
        </mxCell>
        <mxCell id="109" value="" style="edgeStyle=elbowEdgeStyle;orthogonalLoop=1;jettySize=auto;html=1;rounded=0;endArrow=none;startFill=0;jumpStyle=arc;exitX=0.12;exitY=0.46;exitDx=0;exitDy=0;entryX=0.66;entryY=0.52;entryDx=0;entryDy=0;entryPerimeter=0;exitPerimeter=0;strokeWidth=2;" edge="1" parent="2" source="107" target="141">
          <mxGeometry width="100" relative="1" as="geometry">
            <mxPoint x="733" y="117" as="sourcePoint" />
            <mxPoint x="733" y="80" as="targetPoint" />
          </mxGeometry>
        </mxCell>
        <mxCell id="110" value="" style="shape=waypoint;sketch=0;fillStyle=solid;size=6;pointerEvents=1;points=[];fillColor=none;resizable=0;rotatable=0;perimeter=centerPerimeter;snapToPoint=1;strokeWidth=2;" vertex="1" parent="2">
          <mxGeometry x="940" y="50" width="20" height="20" as="geometry" />
        </mxCell>
        <mxCell id="111" value="" style="edgeStyle=elbowEdgeStyle;orthogonalLoop=1;jettySize=auto;html=1;rounded=0;endArrow=none;startFill=0;jumpStyle=arc;exitX=0.175;exitY=0.15;exitDx=0;exitDy=0;entryX=0.417;entryY=0.338;entryDx=0;entryDy=0;entryPerimeter=0;exitPerimeter=0;strokeWidth=2;" edge="1" parent="2" source="110" target="107">
          <mxGeometry width="100" relative="1" as="geometry">
            <mxPoint x="883" y="70" as="sourcePoint" />
            <mxPoint x="723" y="70" as="targetPoint" />
          </mxGeometry>
        </mxCell>
        <mxCell id="112" value="" style="edgeStyle=elbowEdgeStyle;orthogonalLoop=1;jettySize=auto;html=1;rounded=0;endArrow=none;startFill=0;jumpStyle=arc;exitDx=0;exitDy=0;exitPerimeter=0;strokeWidth=2;" edge="1" parent="2" source="115">
          <mxGeometry width="100" relative="1" as="geometry">
            <mxPoint x="1050" y="79.75999999999999" as="sourcePoint" />
            <mxPoint x="950" y="60" as="targetPoint" />
          </mxGeometry>
        </mxCell>
        <mxCell id="113" value="" style="edgeStyle=elbowEdgeStyle;orthogonalLoop=1;jettySize=auto;html=1;rounded=0;endArrow=none;startFill=0;jumpStyle=arc;exitX=0;exitY=0.5;exitDx=0;exitDy=0;entryX=1;entryY=0.5;entryDx=0;entryDy=0;entryPerimeter=0;strokeWidth=2;" edge="1" parent="2" source="23" target="126">
          <mxGeometry width="100" relative="1" as="geometry">
            <mxPoint x="1125.5" y="79.75999999999999" as="sourcePoint" />
            <mxPoint x="1098.5" y="79.75999999999999" as="targetPoint" />
          </mxGeometry>
        </mxCell>
        <mxCell id="114" value="" style="edgeStyle=elbowEdgeStyle;orthogonalLoop=1;jettySize=auto;html=1;rounded=0;endArrow=none;startFill=0;jumpStyle=arc;exitX=0;exitY=0.5;exitDx=0;exitDy=0;entryDx=0;entryDy=0;entryPerimeter=0;exitPerimeter=0;strokeWidth=2;" edge="1" parent="2" source="126" target="115">
          <mxGeometry width="100" relative="1" as="geometry">
            <mxPoint x="1025" y="60" as="sourcePoint" />
            <mxPoint x="948" y="60" as="targetPoint" />
          </mxGeometry>
        </mxCell>
        <mxCell id="115" value="" style="shape=waypoint;sketch=0;fillStyle=solid;size=6;pointerEvents=1;points=[];fillColor=none;resizable=0;rotatable=0;perimeter=centerPerimeter;snapToPoint=1;strokeWidth=2;" vertex="1" parent="2">
          <mxGeometry x="990" y="50" width="20" height="20" as="geometry" />
        </mxCell>
        <mxCell id="116" value="" style="edgeStyle=elbowEdgeStyle;orthogonalLoop=1;jettySize=auto;html=1;rounded=0;endArrow=none;startFill=0;jumpStyle=arc;exitDx=0;exitDy=0;entryX=0.5;entryY=0;entryDx=0;entryDy=0;entryPerimeter=0;exitPerimeter=0;exitX=0.435;exitY=0.635;strokeWidth=2;" edge="1" parent="2" source="115" target="124">
          <mxGeometry width="100" relative="1" as="geometry">
            <mxPoint x="1008" y="70" as="sourcePoint" />
            <mxPoint x="958" y="70" as="targetPoint" />
          </mxGeometry>
        </mxCell>
        <mxCell id="117" value="" style="edgeStyle=elbowEdgeStyle;orthogonalLoop=1;jettySize=auto;html=1;rounded=0;endArrow=none;startFill=0;jumpStyle=arc;exitX=0.9;exitY=0.408;exitDx=0;exitDy=0;exitPerimeter=0;entryDx=0;entryDy=0;strokeWidth=2;" edge="1" parent="2" source="104" target="118">
          <mxGeometry width="100" relative="1" as="geometry">
            <mxPoint x="948" y="450" as="sourcePoint" />
            <mxPoint x="1085" y="450" as="targetPoint" />
          </mxGeometry>
        </mxCell>
        <mxCell id="118" value="" style="shape=waypoint;sketch=0;fillStyle=solid;size=6;pointerEvents=1;points=[];fillColor=none;resizable=0;rotatable=0;perimeter=centerPerimeter;snapToPoint=1;strokeWidth=2;" vertex="1" parent="2">
          <mxGeometry x="991" y="440" width="20" height="20" as="geometry" />
        </mxCell>
        <mxCell id="119" value="" style="edgeStyle=elbowEdgeStyle;orthogonalLoop=1;jettySize=auto;html=1;rounded=0;endArrow=none;startFill=0;jumpStyle=arc;entryX=0.471;entryY=0.37;entryDx=0;entryDy=0;entryPerimeter=0;strokeWidth=2;exitX=0.5;exitY=1;exitDx=0;exitDy=0;exitPerimeter=0;" edge="1" parent="2" source="124" target="118">
          <mxGeometry width="100" relative="1" as="geometry">
            <mxPoint x="1020" y="300" as="sourcePoint" />
            <mxPoint x="958" y="460" as="targetPoint" />
          </mxGeometry>
        </mxCell>
        <mxCell id="120" value="V&lt;sub&gt;High&lt;/sub&gt;" style="text;html=1;align=center;verticalAlign=middle;resizable=0;points=[];autosize=1;strokeColor=none;fillColor=none;fontSize=20;fontStyle=1;rounded=0;strokeWidth=2;" vertex="1" parent="2">
          <mxGeometry x="1057.5" width="70" height="40" as="geometry" />
        </mxCell>
        <mxCell id="121" value="C&lt;sub&gt;2Low&lt;/sub&gt;" style="text;html=1;align=center;verticalAlign=middle;resizable=0;points=[];autosize=1;strokeColor=none;fillColor=none;fontSize=20;fontStyle=1;rounded=0;strokeWidth=2;" vertex="1" parent="2">
          <mxGeometry x="431" y="314.0000000000001" width="80" height="40" as="geometry" />
        </mxCell>
        <mxCell id="122" value="" style="edgeStyle=elbowEdgeStyle;orthogonalLoop=1;jettySize=auto;html=1;rounded=0;endArrow=none;startFill=0;exitDx=0;exitDy=0;jumpStyle=arc;exitX=0.476;exitY=0.661;exitPerimeter=0;entryX=0.5;entryY=0;entryDx=0;entryDy=0;strokeWidth=2;" edge="1" parent="2" source="98" target="129">
          <mxGeometry width="100" relative="1" as="geometry">
            <mxPoint x="598" y="501.85" as="sourcePoint" />
            <mxPoint x="713" y="463" as="targetPoint" />
          </mxGeometry>
        </mxCell>
        <mxCell id="123" value="+" style="text;html=1;align=center;verticalAlign=middle;resizable=0;points=[];autosize=1;strokeColor=none;fillColor=none;fontStyle=1;rounded=0;" vertex="1" parent="2">
          <mxGeometry x="985" y="210" width="30" height="30" as="geometry" />
        </mxCell>
        <mxCell id="124" value="V" style="verticalLabelPosition=middle;shadow=0;dashed=0;align=center;html=1;verticalAlign=middle;strokeWidth=2;shape=ellipse;aspect=fixed;fontSize=20;spacing=0;spacingBottom=2;points=[[0,0.5,0,0,0],[0.5,0,0,0,0],[0.5,1,0,0,0],[1,0.5,0,0,0]];fillColor=none;" vertex="1" parent="2">
          <mxGeometry x="980" y="220" width="40" height="40" as="geometry" />
        </mxCell>
        <mxCell id="125" value="+" style="text;html=1;align=center;verticalAlign=middle;resizable=0;points=[];autosize=1;strokeColor=none;fillColor=none;fontStyle=1;rounded=0;" vertex="1" parent="2">
          <mxGeometry x="1042" y="43" width="30" height="30" as="geometry" />
        </mxCell>
        <mxCell id="126" value="A" style="verticalLabelPosition=middle;shadow=0;dashed=0;align=center;html=1;verticalAlign=middle;strokeWidth=2;shape=ellipse;aspect=fixed;fontSize=20;spacing=0;spacingBottom=2;spacingTop=0;points=[[0,0.5,0,0,0],[0.5,0,0,0,0],[0.5,1,0,0,0],[1,0.5,0,0,0]];fillColor=none;" vertex="1" parent="2">
          <mxGeometry x="1025" y="40" width="40" height="40" as="geometry" />
        </mxCell>
        <mxCell id="127" value="+" style="text;html=1;align=center;verticalAlign=middle;resizable=0;points=[];autosize=1;strokeColor=none;fillColor=none;fontStyle=1;rounded=0;" vertex="1" parent="2">
          <mxGeometry x="364" y="320" width="30" height="30" as="geometry" />
        </mxCell>
        <mxCell id="128" value="V" style="verticalLabelPosition=middle;shadow=0;dashed=0;align=center;html=1;verticalAlign=middle;strokeWidth=2;shape=ellipse;aspect=fixed;fontSize=20;spacing=0;spacingBottom=2;points=[[0,0.5,0,0,0],[0.5,0,0,0,0],[0.5,1,0,0,0],[1,0.5,0,0,0]];fillColor=none;" vertex="1" parent="2">
          <mxGeometry x="359" y="330" width="40" height="40" as="geometry" />
        </mxCell>
        <mxCell id="129" value="" style="shape=stencil(pZPZDoIwEEW/pq+mtOLyaFD/o8AojdiSUre/tzCgVmji8kIy9zJnbiZTwpO6EBUQRgvC14QxRt3HlRe/FHUFmUXtLIwUaQno1NboA1xkbjuCVAUYaRuXbwhdkYZBCU8yrZSDSK1qz3nxHUxI5XrpFWF0EuOYW1djVbkJR7BgUI1QJWz7NtIpoak8SUV22Bt9UvmwK+jttIER42HLssSNjOTpf6pEs6uB0dtHfYbnBiI6toBxdE8opQoT4k8Ifobp94C3CLN/I/iA+Q8Rpt8T/AgLD7D8IQL7nNBeYeBQ3KMNnVjbNrjRVsWH3gp3);whiteSpace=wrap;html=1;aspect=fixed;strokeWidth=2;" vertex="1" parent="2">
          <mxGeometry x="693" y="465" width="40" height="40" as="geometry" />
        </mxCell>
        <mxCell id="130" value="" style="edgeStyle=orthogonalEdgeStyle;orthogonalLoop=1;jettySize=auto;html=1;rounded=0;endArrow=none;startFill=0;jumpStyle=arc;exitDx=0;exitDy=0;entryX=0.5;entryY=0;entryDx=0;entryDy=0;entryPerimeter=0;exitX=1;exitY=0.5;strokeWidth=2;" edge="1" parent="2" source="23" target="160">
          <mxGeometry width="100" relative="1" as="geometry">
            <mxPoint x="1142.5200000000004" y="51.25" as="sourcePoint" />
            <mxPoint x="1157.5" y="219.9300000000003" as="targetPoint" />
          </mxGeometry>
        </mxCell>
        <mxCell id="131" value="" style="edgeStyle=orthogonalEdgeStyle;orthogonalLoop=1;jettySize=auto;html=1;rounded=0;endArrow=none;startFill=0;jumpStyle=arc;exitDx=0;exitDy=0;entryX=1;entryY=0.5;entryDx=0;entryDy=0;exitX=0.5;exitY=1;strokeWidth=2;exitPerimeter=0;" edge="1" parent="2" source="160" target="24">
          <mxGeometry width="100" relative="1" as="geometry">
            <mxPoint x="1157.5" y="279.9300000000003" as="sourcePoint" />
            <mxPoint x="1263" y="465" as="targetPoint" />
          </mxGeometry>
        </mxCell>
        <mxCell id="132" value="" style="edgeStyle=orthogonalEdgeStyle;orthogonalLoop=1;jettySize=auto;html=1;rounded=0;entryX=0;entryY=0.5;entryDx=0;entryDy=0;endArrow=none;startFill=0;exitDx=0;exitDy=0;jumpStyle=arc;strokeWidth=2;exitX=0.517;exitY=0.371;exitPerimeter=0;" edge="1" parent="2" target="20">
          <mxGeometry width="100" relative="1" as="geometry">
            <mxPoint x="50" y="260" as="sourcePoint" />
            <mxPoint x="298" y="227" as="targetPoint" />
            <Array as="points">
              <mxPoint x="50" y="210" />
              <mxPoint x="140" y="210" />
            </Array>
          </mxGeometry>
        </mxCell>
        <mxCell id="133" value="Q&lt;sub&gt;1&lt;/sub&gt;" style="text;html=1;align=center;verticalAlign=middle;resizable=0;points=[];autosize=1;strokeColor=none;fillColor=none;fontSize=20;fontStyle=1;rounded=0;" vertex="1" parent="2">
          <mxGeometry x="658" y="80" width="50" height="40" as="geometry" />
        </mxCell>
        <mxCell id="134" value="" style="ellipse;whiteSpace=wrap;html=1;fillColor=light-dark(#99C3B7,#99C3B7);strokeWidth=2;strokeColor=default;container=0;" vertex="1" parent="2">
          <mxGeometry x="679" y="110" width="57" height="57" as="geometry" />
        </mxCell>
        <mxCell id="135" value="" style="shape=stencil(rZRNbsMgEIVPw7bC4GZf0fYexJnEKAQsoEl7+2CPLYU4Rv7pxtK8Jz5mHmDCha9lA4TRmvBPwhij8RPLG5ZlX0rfQBVQu0qn5F4DOj44e4abOoSeoEwNToXW5V+EfpAWSQkXlTUmQpQ1PnEe/AiTysS19Bdh/fZ/ffX2jnUTd7hAAId6gSph37PBxRYwF1GZGoeLvazOJ2d/zOFlO41soxoZg32xV3jo8ykBmht1QGhlphFsBYKniGIWotLWQ+ZYoj6KolMn8uPiaB1kgj0qrfE6ZnZdlP6asbPhz0OkTbBdgiiXN/FE2H4BthNWIcr/RhS75cex6i2kXZRLEK8fyuBN3vdu2ejBdCr+8jvhDg==);html=1;verticalAlign=top;align=left;spacingTop=10;spacing=0;spacingLeft=25;fillColor=none;flipV=1;rotation=-90;aspect=fixed;strokeWidth=2;container=0;" vertex="1" parent="2">
          <mxGeometry x="713" y="133.25" width="20" height="10" as="geometry" />
        </mxCell>
        <mxCell id="136" value="" style="edgeStyle=orthogonalEdgeStyle;orthogonalLoop=1;jettySize=auto;html=1;rounded=0;endArrow=none;startFill=0;entryX=1;entryY=0.5;entryDx=0;entryDy=0;strokeWidth=2;" edge="1" parent="2" source="137">
          <mxGeometry width="100" relative="1" as="geometry">
            <mxPoint x="713" y="124" as="sourcePoint" />
            <mxPoint x="723" y="133" as="targetPoint" />
          </mxGeometry>
        </mxCell>
        <mxCell id="137" value="" style="shape=waypoint;sketch=0;fillStyle=solid;size=6;pointerEvents=1;points=[];fillColor=none;resizable=0;rotatable=0;perimeter=centerPerimeter;snapToPoint=1;strokeColor=default;strokeWidth=1;container=0;" vertex="1" parent="2">
          <mxGeometry x="703" y="107.25" width="20" height="20" as="geometry" />
        </mxCell>
        <mxCell id="138" value="" style="edgeStyle=orthogonalEdgeStyle;orthogonalLoop=1;jettySize=auto;html=1;rounded=0;exitX=0;exitY=0.5;exitDx=0;exitDy=0;endArrow=none;startFill=0;strokeWidth=2;" edge="1" parent="2" target="139">
          <mxGeometry width="100" relative="1" as="geometry">
            <mxPoint x="723" y="148" as="sourcePoint" />
            <mxPoint x="723" y="169" as="targetPoint" />
            <Array as="points">
              <mxPoint x="723" y="158" />
            </Array>
          </mxGeometry>
        </mxCell>
        <mxCell id="139" value="" style="shape=waypoint;sketch=0;fillStyle=solid;size=6;pointerEvents=1;points=[];fillColor=none;resizable=0;rotatable=0;perimeter=centerPerimeter;snapToPoint=1;strokeColor=default;strokeWidth=1;container=0;" vertex="1" parent="2">
          <mxGeometry x="703" y="148" width="20" height="20" as="geometry" />
        </mxCell>
        <mxCell id="140" value="" style="edgeStyle=orthogonalEdgeStyle;orthogonalLoop=1;jettySize=auto;html=1;rounded=0;entryX=0.5;entryY=0.5;entryDx=0;entryDy=0;entryPerimeter=0;endArrow=block;endFill=0;strokeWidth=2;" edge="1" parent="2" source="139">
          <mxGeometry width="100" relative="1" as="geometry">
            <mxPoint x="623" y="169" as="sourcePoint" />
            <mxPoint x="693" y="138" as="targetPoint" />
            <Array as="points">
              <mxPoint x="713" y="138" />
            </Array>
          </mxGeometry>
        </mxCell>
        <mxCell id="141" value="" style="shape=waypoint;sketch=0;fillStyle=solid;size=6;pointerEvents=1;points=[];fillColor=none;resizable=0;rotatable=0;perimeter=centerPerimeter;snapToPoint=1;strokeColor=none;" vertex="1" parent="2">
          <mxGeometry x="703" y="50" width="20" height="20" as="geometry" />
        </mxCell>
        <mxCell id="142" value="" style="edgeStyle=elbowEdgeStyle;orthogonalLoop=1;jettySize=auto;html=1;rounded=0;endArrow=none;startFill=0;jumpStyle=arc;exitX=1;exitY=0;exitDx=0;exitDy=0;entryX=0.56;entryY=0.63;entryDx=0;entryDy=0;entryPerimeter=0;strokeWidth=2;" edge="1" parent="2" source="143" target="141">
          <mxGeometry width="100" relative="1" as="geometry">
            <mxPoint x="728" y="90" as="sourcePoint" />
            <mxPoint x="813" y="66.53999999999996" as="targetPoint" />
          </mxGeometry>
        </mxCell>
        <mxCell id="143" value="" style="shape=stencil(xZXbboMwDIafJrdTTu24nej6Hin1RlSaoJAe9vYLhFYlLGgjVJMQkv3jL45jHMTyphQ1IIoviG0QpRy7lzNLb2a9KZoaCut9Z2Gk2FXglcYafYCL3Ns+RKoSjLStyt4RfnPftA/LC62Ug0itmoHyoDuYkMrF4quH9ct/9dbLytu1W+EIFoz3E+9FdPtrMBmCn4MlS2HvGw8LEUJY7jyxQrN8J4rDp9EntR9HRbUPbeAH4S7LqvJNMLGpWrTtMRJu8lGfIXboazxVrxuhkuqBQF5nIIZJBAj6P1kEtSDZ37MIECw9C8aTs+Dr5CxWM04kbC2anMWcvuCLI9LPdM5fxhdHZJOIbkxFJom7yGIzqAsbDbHO6y+/zvEN);whiteSpace=wrap;html=1;strokeWidth=2;movable=1;resizable=1;rotatable=1;deletable=1;editable=1;locked=0;connectable=1;" vertex="1" parent="2">
          <mxGeometry x="673" y="97.25" width="40" height="80" as="geometry" />
        </mxCell>
        <mxCell id="144" value="" style="ellipse;whiteSpace=wrap;html=1;fillColor=light-dark(#99C3B7,#99C3B7);strokeWidth=2;strokeColor=default;container=0;" vertex="1" parent="2">
          <mxGeometry x="679" y="310" width="57" height="57" as="geometry" />
        </mxCell>
        <mxCell id="145" value="" style="shape=stencil(rZRNbsMgEIVPw7bC4GZf0fYexJnEKAQsoEl7+2CPLYU4Rv7pxtK8Jz5mHmDCha9lA4TRmvBPwhij8RPLG5ZlX0rfQBVQu0qn5F4DOj44e4abOoSeoEwNToXW5V+EfpAWSQkXlTUmQpQ1PnEe/AiTysS19Bdh/fZ/ffX2jnUTd7hAAId6gSph37PBxRYwF1GZGoeLvazOJ2d/zOFlO41soxoZg32xV3jo8ykBmht1QGhlphFsBYKniGIWotLWQ+ZYoj6KolMn8uPiaB1kgj0qrfE6ZnZdlP6asbPhz0OkTbBdgiiXN/FE2H4BthNWIcr/RhS75cex6i2kXZRLEK8fyuBN3vdu2ejBdCr+8jvhDg==);html=1;verticalAlign=top;align=left;spacingTop=10;spacing=0;spacingLeft=25;fillColor=none;flipV=1;rotation=-90;aspect=fixed;strokeWidth=2;container=0;" vertex="1" parent="2">
          <mxGeometry x="713" y="333.25" width="20" height="10" as="geometry" />
        </mxCell>
        <mxCell id="146" value="" style="edgeStyle=orthogonalEdgeStyle;orthogonalLoop=1;jettySize=auto;html=1;rounded=0;endArrow=none;startFill=0;entryX=1;entryY=0.5;entryDx=0;entryDy=0;strokeWidth=2;" edge="1" parent="2" source="147">
          <mxGeometry width="100" relative="1" as="geometry">
            <mxPoint x="713" y="324" as="sourcePoint" />
            <mxPoint x="723" y="333" as="targetPoint" />
          </mxGeometry>
        </mxCell>
        <mxCell id="147" value="" style="shape=waypoint;sketch=0;fillStyle=solid;size=6;pointerEvents=1;points=[];fillColor=none;resizable=0;rotatable=0;perimeter=centerPerimeter;snapToPoint=1;strokeColor=default;strokeWidth=1;container=0;" vertex="1" parent="2">
          <mxGeometry x="703" y="307.25" width="20" height="20" as="geometry" />
        </mxCell>
        <mxCell id="148" value="" style="edgeStyle=orthogonalEdgeStyle;orthogonalLoop=1;jettySize=auto;html=1;rounded=0;exitX=0;exitY=0.5;exitDx=0;exitDy=0;endArrow=none;startFill=0;strokeWidth=2;" edge="1" parent="2" target="149">
          <mxGeometry width="100" relative="1" as="geometry">
            <mxPoint x="723" y="348" as="sourcePoint" />
            <mxPoint x="723" y="369" as="targetPoint" />
            <Array as="points">
              <mxPoint x="723" y="358" />
            </Array>
          </mxGeometry>
        </mxCell>
        <mxCell id="149" value="" style="shape=waypoint;sketch=0;fillStyle=solid;size=6;pointerEvents=1;points=[];fillColor=none;resizable=0;rotatable=0;perimeter=centerPerimeter;snapToPoint=1;strokeColor=default;strokeWidth=1;container=0;" vertex="1" parent="2">
          <mxGeometry x="703" y="348" width="20" height="20" as="geometry" />
        </mxCell>
        <mxCell id="150" value="" style="edgeStyle=orthogonalEdgeStyle;orthogonalLoop=1;jettySize=auto;html=1;rounded=0;entryX=0.5;entryY=0.5;entryDx=0;entryDy=0;entryPerimeter=0;endArrow=block;endFill=0;strokeWidth=2;" edge="1" parent="2" source="149">
          <mxGeometry width="100" relative="1" as="geometry">
            <mxPoint x="623" y="369" as="sourcePoint" />
            <mxPoint x="693" y="338" as="targetPoint" />
            <Array as="points">
              <mxPoint x="713" y="338" />
            </Array>
          </mxGeometry>
        </mxCell>
        <mxCell id="151" value="Q&lt;sub&gt;2&lt;/sub&gt;" style="text;html=1;align=center;verticalAlign=middle;resizable=0;points=[];autosize=1;strokeColor=none;fillColor=none;fontSize=20;fontStyle=1;rounded=0;" vertex="1" parent="2">
          <mxGeometry x="658" y="280" width="50" height="40" as="geometry" />
        </mxCell>
        <mxCell id="152" value="" style="shape=stencil(xZXbboMwDIafJrdTTu24nej6Hin1RlSaoJAe9vYLhFYlLGgjVJMQkv3jL45jHMTyphQ1IIoviG0QpRy7lzNLb2a9KZoaCut9Z2Gk2FXglcYafYCL3Ns+RKoSjLStyt4RfnPftA/LC62Ug0itmoHyoDuYkMrF4quH9ct/9dbLytu1W+EIFoz3E+9FdPtrMBmCn4MlS2HvGw8LEUJY7jyxQrN8J4rDp9EntR9HRbUPbeAH4S7LqvJNMLGpWrTtMRJu8lGfIXboazxVrxuhkuqBQF5nIIZJBAj6P1kEtSDZ37MIECw9C8aTs+Dr5CxWM04kbC2anMWcvuCLI9LPdM5fxhdHZJOIbkxFJom7yGIzqAsbDbHO6y+/zvEN);whiteSpace=wrap;html=1;strokeWidth=2;movable=1;resizable=1;rotatable=1;deletable=1;editable=1;locked=0;connectable=1;" vertex="1" parent="2">
          <mxGeometry x="673" y="297.25" width="40" height="80" as="geometry" />
        </mxCell>
        <mxCell id="153" value="" style="edgeStyle=none;orthogonalLoop=1;jettySize=auto;html=1;labelBackgroundColor=none;fontSize=10;startArrow=open;startFill=0;endArrow=classic;endFill=1;curved=1;dashed=1;rounded=0;strokeWidth=2;fontColor=light-dark(default, #ed333b);strokeColor=light-dark(#FF3333,#FF3333);" edge="1" parent="2">
          <mxGeometry width="80" relative="1" as="geometry">
            <mxPoint x="473" y="200" as="sourcePoint" />
            <mxPoint x="513" y="200" as="targetPoint" />
            <Array as="points" />
          </mxGeometry>
        </mxCell>
        <mxCell id="154" value="&lt;i&gt;i1Low&lt;/i&gt;" style="edgeLabel;html=1;align=center;verticalAlign=middle;resizable=0;points=[];fontSize=15;labelBackgroundColor=none;fontColor=light-dark(#FF3333,#FF3333);" connectable="0" vertex="1" parent="153">
          <mxGeometry x="0.52" y="-1" relative="1" as="geometry">
            <mxPoint x="-13" y="-16" as="offset" />
          </mxGeometry>
        </mxCell>
        <mxCell id="155" value="" style="edgeStyle=none;orthogonalLoop=1;jettySize=auto;html=1;labelBackgroundColor=none;fontSize=10;startArrow=openThin;startFill=0;endArrow=none;endFill=0;curved=1;dashed=1;rounded=0;strokeWidth=2;fontColor=light-dark(default, #ed333b);strokeColor=light-dark(#FF3333,#FF3333);" edge="1" parent="2">
          <mxGeometry width="80" relative="1" as="geometry">
            <mxPoint x="1090" y="96.82999999999993" as="sourcePoint" />
            <mxPoint x="1130" y="96.82999999999993" as="targetPoint" />
            <Array as="points" />
          </mxGeometry>
        </mxCell>
        <mxCell id="156" value="&lt;i&gt;iHigh&lt;/i&gt;" style="edgeLabel;html=1;align=center;verticalAlign=middle;resizable=0;points=[];fontSize=15;labelBackgroundColor=none;fontColor=light-dark(#FF3333,#FF3333);" connectable="0" vertex="1" parent="155">
          <mxGeometry x="0.52" y="-1" relative="1" as="geometry">
            <mxPoint x="-12" y="-15" as="offset" />
          </mxGeometry>
        </mxCell>
        <mxCell id="157" value="" style="edgeStyle=none;orthogonalLoop=1;jettySize=auto;html=1;labelBackgroundColor=none;fontSize=10;startArrow=openThin;startFill=0;endArrow=openThin;endFill=0;curved=1;dashed=1;rounded=0;strokeColor=light-dark(#FF3333,#FF3333);strokeWidth=2;" edge="1" parent="2">
          <mxGeometry width="80" relative="1" as="geometry">
            <mxPoint x="1055.6599999999999" y="380.25" as="sourcePoint" />
            <mxPoint x="1055.6599999999999" y="140.25" as="targetPoint" />
            <Array as="points" />
          </mxGeometry>
        </mxCell>
        <mxCell id="158" value="&lt;div&gt;&lt;i&gt;&amp;nbsp;&amp;nbsp;&amp;nbsp;&amp;nbsp;&amp;nbsp;&amp;nbsp;&lt;/i&gt;&lt;/div&gt;&lt;div&gt;&lt;i&gt;&lt;br&gt;&lt;/i&gt;&lt;/div&gt;&lt;div&gt;&lt;i&gt;&lt;br&gt;&lt;/i&gt;&lt;/div&gt;&lt;div&gt;&lt;i&gt;&lt;br&gt;&lt;/i&gt;&lt;/div&gt;&lt;div&gt;&lt;i&gt;&lt;br&gt;&lt;/i&gt;&lt;/div&gt;&lt;div&gt;&lt;i&gt;&amp;nbsp;&amp;nbsp;&amp;nbsp;&amp;nbsp;&amp;nbsp;&amp;nbsp;&amp;nbsp;&amp;nbsp;&lt;/i&gt;&lt;/div&gt;&lt;div&gt;&lt;i&gt;&amp;nbsp;&amp;nbsp;&amp;nbsp;&amp;nbsp;&amp;nbsp; VSource&lt;/i&gt;&lt;/div&gt;" style="edgeLabel;html=1;align=center;verticalAlign=middle;resizable=0;points=[];fontSize=15;labelBackgroundColor=none;fontColor=light-dark(#FF3333,#FF3333);" connectable="0" vertex="1" parent="157">
          <mxGeometry x="0.52" y="-1" relative="1" as="geometry">
            <mxPoint x="20" y="2" as="offset" />
          </mxGeometry>
        </mxCell>
        <mxCell id="159" value="" style="pointerEvents=1;verticalLabelPosition=middle;shadow=0;dashed=0;align=left;html=1;verticalAlign=top;shape=mxgraph.electrical.resistors.resistor_2;labelPosition=center;spacingBottom=0;spacingLeft=25;direction=west;spacing=0;spacingTop=10;points=[[0,0.5,0,0,0],[0.5,0,0,0,-3],[0.5,1,0,0,2],[1,0.5,0,0,0]];fillColor=none;rotation=90;strokeWidth=2;" vertex="1" parent="2">
          <mxGeometry x="20" y="320" width="60" height="20" as="geometry" />
        </mxCell>
        <mxCell id="160" value="" style="pointerEvents=1;verticalLabelPosition=middle;shadow=0;dashed=0;align=left;html=1;verticalAlign=top;shape=mxgraph.electrical.signal_sources.source;aspect=fixed;points=[[0.5,0,0],[1,0.5,0],[0.5,1,0],[0,0.5,0]];elSignalType=dc3;direction=south;labelPosition=center;spacingBottom=0;spacingLeft=40;spacing=0;spacingTop=20;fillColor=none;strokeWidth=2;rotation=-90;" vertex="1" parent="2">
          <mxGeometry x="1133" y="233" width="40" height="40" as="geometry" />
        </mxCell>
        <mxCell id="161" value="" style="edgeStyle=elbowEdgeStyle;orthogonalLoop=1;jettySize=auto;html=1;rounded=0;entryX=0.5;entryY=0.537;entryDx=0;entryDy=0;endArrow=none;startFill=0;exitDx=0;exitDy=0;jumpStyle=arc;strokeWidth=2;exitX=1;exitY=0.5;exitPerimeter=0;entryPerimeter=0;" edge="1" parent="2" source="159">
          <mxGeometry width="100" relative="1" as="geometry">
            <mxPoint x="63" y="269" as="sourcePoint" />
            <mxPoint x="50" y="260" as="targetPoint" />
          </mxGeometry>
        </mxCell>
        <mxCell id="162" value="" style="group;strokeWidth=2;fillColor=default;" connectable="0" vertex="1" parent="2">
          <mxGeometry x="408" y="359.75" width="57" height="60.75" as="geometry" />
        </mxCell>
        <mxCell id="163" value="" style="ellipse;whiteSpace=wrap;html=1;fillColor=none;strokeWidth=2;strokeColor=default;container=0;" vertex="1" parent="162">
          <mxGeometry y="2.75" width="57" height="57" as="geometry" />
        </mxCell>
        <mxCell id="164" value="" style="shape=stencil(rZRNbsMgEIVPw7bC4GZf0fYexJnEKAQsoEl7+2CPLYU4Rv7pxtK8Jz5mHmDCha9lA4TRmvBPwhij8RPLG5ZlX0rfQBVQu0qn5F4DOj44e4abOoSeoEwNToXW5V+EfpAWSQkXlTUmQpQ1PnEe/AiTysS19Bdh/fZ/ffX2jnUTd7hAAId6gSph37PBxRYwF1GZGoeLvazOJ2d/zOFlO41soxoZg32xV3jo8ykBmht1QGhlphFsBYKniGIWotLWQ+ZYoj6KolMn8uPiaB1kgj0qrfE6ZnZdlP6asbPhz0OkTbBdgiiXN/FE2H4BthNWIcr/RhS75cex6i2kXZRLEK8fyuBN3vdu2ejBdCr+8jvhDg==);html=1;verticalAlign=top;align=left;spacingTop=10;spacing=0;spacingLeft=25;fillColor=none;flipV=1;rotation=-90;aspect=fixed;strokeWidth=2;container=0;" vertex="1" parent="162">
          <mxGeometry x="34" y="26" width="20" height="10" as="geometry" />
        </mxCell>
        <mxCell id="165" value="" style="edgeStyle=orthogonalEdgeStyle;orthogonalLoop=1;jettySize=auto;html=1;rounded=0;endArrow=none;startFill=0;entryX=1;entryY=0.5;entryDx=0;entryDy=0;strokeWidth=2;" edge="1" parent="162" source="166">
          <mxGeometry width="100" relative="1" as="geometry">
            <mxPoint x="34" y="16.75" as="sourcePoint" />
            <mxPoint x="44" y="25.75" as="targetPoint" />
          </mxGeometry>
        </mxCell>
        <mxCell id="166" value="" style="shape=waypoint;sketch=0;fillStyle=solid;size=6;pointerEvents=1;points=[];fillColor=none;resizable=0;rotatable=0;perimeter=centerPerimeter;snapToPoint=1;strokeColor=default;strokeWidth=1;container=0;" vertex="1" parent="162">
          <mxGeometry x="24" width="20" height="20" as="geometry" />
        </mxCell>
        <mxCell id="167" value="" style="edgeStyle=orthogonalEdgeStyle;orthogonalLoop=1;jettySize=auto;html=1;rounded=0;exitX=0;exitY=0.5;exitDx=0;exitDy=0;endArrow=none;startFill=0;strokeWidth=2;" edge="1" parent="162" target="168">
          <mxGeometry width="100" relative="1" as="geometry">
            <mxPoint x="44" y="40.75" as="sourcePoint" />
            <mxPoint x="44" y="61.75" as="targetPoint" />
            <Array as="points">
              <mxPoint x="44" y="50.75" />
            </Array>
          </mxGeometry>
        </mxCell>
        <mxCell id="168" value="" style="shape=waypoint;sketch=0;fillStyle=solid;size=6;pointerEvents=1;points=[];fillColor=none;resizable=0;rotatable=0;perimeter=centerPerimeter;snapToPoint=1;strokeColor=default;strokeWidth=1;container=0;" vertex="1" parent="162">
          <mxGeometry x="24" y="40.75" width="20" height="20" as="geometry" />
        </mxCell>
        <mxCell id="169" value="" style="edgeStyle=orthogonalEdgeStyle;orthogonalLoop=1;jettySize=auto;html=1;rounded=0;entryX=0.5;entryY=0.5;entryDx=0;entryDy=0;entryPerimeter=0;endArrow=block;endFill=0;strokeWidth=2;" edge="1" parent="162" source="168">
          <mxGeometry width="100" relative="1" as="geometry">
            <mxPoint x="-56" y="61.75" as="sourcePoint" />
            <mxPoint x="14" y="30.75" as="targetPoint" />
            <Array as="points">
              <mxPoint x="34" y="30.75" />
            </Array>
          </mxGeometry>
        </mxCell>
        <mxCell id="170" value="" style="shape=stencil(xZXbboMwDIafJrdTTu24nej6Hin1RlSaoJAe9vYLhFYlLGgjVJMQkv3jL45jHMTyphQ1IIoviG0QpRy7lzNLb2a9KZoaCut9Z2Gk2FXglcYafYCL3Ns+RKoSjLStyt4RfnPftA/LC62Ug0itmoHyoDuYkMrF4quH9ct/9dbLytu1W+EIFoz3E+9FdPtrMBmCn4MlS2HvGw8LEUJY7jyxQrN8J4rDp9EntR9HRbUPbeAH4S7LqvJNMLGpWrTtMRJu8lGfIXboazxVrxuhkuqBQF5nIIZJBAj6P1kEtSDZ37MIECw9C8aTs+Dr5CxWM04kbC2anMWcvuCLI9LPdM5fxhdHZJOIbkxFJom7yGIzqAsbDbHO6y+/zvEN);whiteSpace=wrap;html=1;strokeWidth=2;movable=1;resizable=1;rotatable=1;deletable=1;editable=1;locked=0;connectable=1;" vertex="1" parent="2">
          <mxGeometry x="402" y="349.75" width="40" height="80" as="geometry" />
        </mxCell>
        <mxCell id="171" value="Q&lt;sub&gt;3&lt;/sub&gt;" style="text;html=1;align=center;verticalAlign=middle;resizable=0;points=[];autosize=1;strokeColor=none;fillColor=none;fontSize=20;fontStyle=1;rounded=0;" vertex="1" parent="2">
          <mxGeometry x="818" y="80" width="50" height="40" as="geometry" />
        </mxCell>
        <mxCell id="172" value="" style="ellipse;whiteSpace=wrap;html=1;fillColor=light-dark(#99c3b7, #ededed);strokeWidth=2;strokeColor=default;container=0;" vertex="1" parent="2">
          <mxGeometry x="839" y="110" width="57" height="57" as="geometry" />
        </mxCell>
        <mxCell id="173" value="" style="shape=stencil(rZRNbsMgEIVPw7bC4GZf0fYexJnEKAQsoEl7+2CPLYU4Rv7pxtK8Jz5mHmDCha9lA4TRmvBPwhij8RPLG5ZlX0rfQBVQu0qn5F4DOj44e4abOoSeoEwNToXW5V+EfpAWSQkXlTUmQpQ1PnEe/AiTysS19Bdh/fZ/ffX2jnUTd7hAAId6gSph37PBxRYwF1GZGoeLvazOJ2d/zOFlO41soxoZg32xV3jo8ykBmht1QGhlphFsBYKniGIWotLWQ+ZYoj6KolMn8uPiaB1kgj0qrfE6ZnZdlP6asbPhz0OkTbBdgiiXN/FE2H4BthNWIcr/RhS75cex6i2kXZRLEK8fyuBN3vdu2ejBdCr+8jvhDg==);html=1;verticalAlign=top;align=left;spacingTop=10;spacing=0;spacingLeft=25;fillColor=none;flipV=1;rotation=-90;aspect=fixed;strokeWidth=2;container=0;" vertex="1" parent="2">
          <mxGeometry x="873" y="133.25" width="20" height="10" as="geometry" />
        </mxCell>
        <mxCell id="174" value="" style="edgeStyle=orthogonalEdgeStyle;orthogonalLoop=1;jettySize=auto;html=1;rounded=0;endArrow=none;startFill=0;entryX=1;entryY=0.5;entryDx=0;entryDy=0;strokeWidth=2;" edge="1" parent="2" source="175">
          <mxGeometry width="100" relative="1" as="geometry">
            <mxPoint x="873" y="124" as="sourcePoint" />
            <mxPoint x="883" y="133" as="targetPoint" />
          </mxGeometry>
        </mxCell>
        <mxCell id="175" value="" style="shape=waypoint;sketch=0;fillStyle=solid;size=6;pointerEvents=1;points=[];fillColor=none;resizable=0;rotatable=0;perimeter=centerPerimeter;snapToPoint=1;strokeColor=default;strokeWidth=1;container=0;" vertex="1" parent="2">
          <mxGeometry x="863" y="107.25" width="20" height="20" as="geometry" />
        </mxCell>
        <mxCell id="176" value="" style="edgeStyle=orthogonalEdgeStyle;orthogonalLoop=1;jettySize=auto;html=1;rounded=0;exitX=0;exitY=0.5;exitDx=0;exitDy=0;endArrow=none;startFill=0;strokeWidth=2;" edge="1" parent="2" target="177">
          <mxGeometry width="100" relative="1" as="geometry">
            <mxPoint x="883" y="148" as="sourcePoint" />
            <mxPoint x="883" y="169" as="targetPoint" />
            <Array as="points">
              <mxPoint x="883" y="158" />
            </Array>
          </mxGeometry>
        </mxCell>
        <mxCell id="177" value="" style="shape=waypoint;sketch=0;fillStyle=solid;size=6;pointerEvents=1;points=[];fillColor=none;resizable=0;rotatable=0;perimeter=centerPerimeter;snapToPoint=1;strokeColor=default;strokeWidth=1;container=0;" vertex="1" parent="2">
          <mxGeometry x="863" y="148" width="20" height="20" as="geometry" />
        </mxCell>
        <mxCell id="178" value="" style="edgeStyle=orthogonalEdgeStyle;orthogonalLoop=1;jettySize=auto;html=1;rounded=0;entryX=0.5;entryY=0.5;entryDx=0;entryDy=0;entryPerimeter=0;endArrow=block;endFill=0;strokeWidth=2;" edge="1" parent="2" source="177">
          <mxGeometry width="100" relative="1" as="geometry">
            <mxPoint x="783" y="169" as="sourcePoint" />
            <mxPoint x="853" y="138" as="targetPoint" />
            <Array as="points">
              <mxPoint x="873" y="138" />
            </Array>
          </mxGeometry>
        </mxCell>
        <mxCell id="179" value="" style="shape=stencil(xZXbboMwDIafJrdTTu24nej6Hin1RlSaoJAe9vYLhFYlLGgjVJMQkv3jL45jHMTyphQ1IIoviG0QpRy7lzNLb2a9KZoaCut9Z2Gk2FXglcYafYCL3Ns+RKoSjLStyt4RfnPftA/LC62Ug0itmoHyoDuYkMrF4quH9ct/9dbLytu1W+EIFoz3E+9FdPtrMBmCn4MlS2HvGw8LEUJY7jyxQrN8J4rDp9EntR9HRbUPbeAH4S7LqvJNMLGpWrTtMRJu8lGfIXboazxVrxuhkuqBQF5nIIZJBAj6P1kEtSDZ37MIECw9C8aTs+Dr5CxWM04kbC2anMWcvuCLI9LPdM5fxhdHZJOIbkxFJom7yGIzqAsbDbHO6y+/zvEN);whiteSpace=wrap;html=1;strokeWidth=2;movable=1;resizable=1;rotatable=1;deletable=1;editable=1;locked=0;connectable=1;" vertex="1" parent="2">
          <mxGeometry x="833" y="97.25" width="40" height="80" as="geometry" />
        </mxCell>
        <mxCell id="180" value="Q&lt;sub&gt;4&lt;/sub&gt;" style="text;html=1;align=center;verticalAlign=middle;resizable=0;points=[];autosize=1;strokeColor=none;fillColor=none;fontSize=20;fontStyle=1;rounded=0;strokeWidth=2;" vertex="1" parent="2">
          <mxGeometry x="818" y="280" width="50" height="40" as="geometry" />
        </mxCell>
        <mxCell id="181" value="" style="ellipse;whiteSpace=wrap;html=1;fillColor=light-dark(#99c3b7, #ededed);strokeWidth=2;strokeColor=default;container=0;" vertex="1" parent="2">
          <mxGeometry x="839" y="310" width="57" height="57" as="geometry" />
        </mxCell>
        <mxCell id="182" value="" style="shape=stencil(rZRNbsMgEIVPw7bC4GZf0fYexJnEKAQsoEl7+2CPLYU4Rv7pxtK8Jz5mHmDCha9lA4TRmvBPwhij8RPLG5ZlX0rfQBVQu0qn5F4DOj44e4abOoSeoEwNToXW5V+EfpAWSQkXlTUmQpQ1PnEe/AiTysS19Bdh/fZ/ffX2jnUTd7hAAId6gSph37PBxRYwF1GZGoeLvazOJ2d/zOFlO41soxoZg32xV3jo8ykBmht1QGhlphFsBYKniGIWotLWQ+ZYoj6KolMn8uPiaB1kgj0qrfE6ZnZdlP6asbPhz0OkTbBdgiiXN/FE2H4BthNWIcr/RhS75cex6i2kXZRLEK8fyuBN3vdu2ejBdCr+8jvhDg==);html=1;verticalAlign=top;align=left;spacingTop=10;spacing=0;spacingLeft=25;fillColor=none;flipV=1;rotation=-90;aspect=fixed;strokeWidth=2;container=0;" vertex="1" parent="2">
          <mxGeometry x="873" y="333.25" width="20" height="10" as="geometry" />
        </mxCell>
        <mxCell id="183" value="" style="edgeStyle=orthogonalEdgeStyle;orthogonalLoop=1;jettySize=auto;html=1;rounded=0;endArrow=none;startFill=0;entryX=1;entryY=0.5;entryDx=0;entryDy=0;strokeWidth=2;" edge="1" parent="2" source="184">
          <mxGeometry width="100" relative="1" as="geometry">
            <mxPoint x="873" y="324" as="sourcePoint" />
            <mxPoint x="883" y="333" as="targetPoint" />
          </mxGeometry>
        </mxCell>
        <mxCell id="184" value="" style="shape=waypoint;sketch=0;fillStyle=solid;size=6;pointerEvents=1;points=[];fillColor=none;resizable=0;rotatable=0;perimeter=centerPerimeter;snapToPoint=1;strokeColor=default;strokeWidth=1;container=0;" vertex="1" parent="2">
          <mxGeometry x="863" y="307.25" width="20" height="20" as="geometry" />
        </mxCell>
        <mxCell id="185" value="" style="edgeStyle=orthogonalEdgeStyle;orthogonalLoop=1;jettySize=auto;html=1;rounded=0;exitX=0;exitY=0.5;exitDx=0;exitDy=0;endArrow=none;startFill=0;strokeWidth=2;" edge="1" parent="2" target="186">
          <mxGeometry width="100" relative="1" as="geometry">
            <mxPoint x="883" y="348" as="sourcePoint" />
            <mxPoint x="883" y="369" as="targetPoint" />
            <Array as="points">
              <mxPoint x="883" y="358" />
            </Array>
          </mxGeometry>
        </mxCell>
        <mxCell id="186" value="" style="shape=waypoint;sketch=0;fillStyle=solid;size=6;pointerEvents=1;points=[];fillColor=none;resizable=0;rotatable=0;perimeter=centerPerimeter;snapToPoint=1;strokeColor=default;strokeWidth=1;container=0;" vertex="1" parent="2">
          <mxGeometry x="863" y="348" width="20" height="20" as="geometry" />
        </mxCell>
        <mxCell id="187" value="" style="edgeStyle=orthogonalEdgeStyle;orthogonalLoop=1;jettySize=auto;html=1;rounded=0;entryX=0.5;entryY=0.5;entryDx=0;entryDy=0;entryPerimeter=0;endArrow=block;endFill=0;strokeWidth=2;" edge="1" parent="2" source="186">
          <mxGeometry width="100" relative="1" as="geometry">
            <mxPoint x="783" y="369" as="sourcePoint" />
            <mxPoint x="853" y="338" as="targetPoint" />
            <Array as="points">
              <mxPoint x="873" y="338" />
            </Array>
          </mxGeometry>
        </mxCell>
        <mxCell id="188" value="" style="shape=stencil(xZXbboMwDIafJrdTTu24nej6Hin1RlSaoJAe9vYLhFYlLGgjVJMQkv3jL45jHMTyphQ1IIoviG0QpRy7lzNLb2a9KZoaCut9Z2Gk2FXglcYafYCL3Ns+RKoSjLStyt4RfnPftA/LC62Ug0itmoHyoDuYkMrF4quH9ct/9dbLytu1W+EIFoz3E+9FdPtrMBmCn4MlS2HvGw8LEUJY7jyxQrN8J4rDp9EntR9HRbUPbeAH4S7LqvJNMLGpWrTtMRJu8lGfIXboazxVrxuhkuqBQF5nIIZJBAj6P1kEtSDZ37MIECw9C8aTs+Dr5CxWM04kbC2anMWcvuCLI9LPdM5fxhdHZJOIbkxFJom7yGIzqAsbDbHO6y+/zvEN);whiteSpace=wrap;html=1;strokeWidth=2;movable=1;resizable=1;rotatable=1;deletable=1;editable=1;locked=0;connectable=1;" vertex="1" parent="2">
          <mxGeometry x="833" y="297.25" width="40" height="80" as="geometry" />
        </mxCell>
        <mxCell id="189" value="" style="edgeStyle=orthogonalEdgeStyle;orthogonalLoop=1;jettySize=auto;html=1;rounded=0;entryX=0;entryY=0.5;entryDx=0;entryDy=0;endArrow=none;startFill=0;exitDx=0;exitDy=0;jumpStyle=arc;strokeWidth=2;exitX=0;exitY=0.5;exitPerimeter=0;elbow=vertical;" edge="1" parent="2" source="159" target="21">
          <mxGeometry width="100" relative="1" as="geometry">
            <mxPoint x="63" y="269" as="sourcePoint" />
            <mxPoint x="148" y="227" as="targetPoint" />
            <Array as="points">
              <mxPoint x="50" y="410" />
              <mxPoint x="120" y="410" />
              <mxPoint x="120" y="259" />
            </Array>
          </mxGeometry>
        </mxCell>
        <mxCell id="190" value="" style="edgeStyle=orthogonalEdgeStyle;orthogonalLoop=1;jettySize=auto;html=1;rounded=0;exitX=0;exitY=0.5;exitDx=0;exitDy=0;exitPerimeter=0;entryDx=0;entryDy=0;entryPerimeter=0;elbow=vertical;endArrow=none;startFill=0;strokeWidth=2;entryX=0.647;entryY=0.931;" edge="1" parent="2" source="77" target="86">
          <mxGeometry width="100" relative="1" as="geometry">
            <mxPoint x="428" y="239.69000000000005" as="sourcePoint" />
            <mxPoint x="456" y="239.69000000000005" as="targetPoint" />
            <Array as="points">
              <mxPoint x="442" y="272" />
            </Array>
          </mxGeometry>
        </mxCell>
        <mxCell id="191" value="" style="edgeStyle=orthogonalEdgeStyle;orthogonalLoop=1;jettySize=auto;html=1;rounded=0;exitX=0.004;exitY=0.859;exitDx=0;exitDy=0;exitPerimeter=0;entryDx=0;entryDy=0;entryPerimeter=0;elbow=vertical;endArrow=none;startFill=0;strokeWidth=2;entryX=0;entryY=0.5;" edge="1" parent="2" source="86" target="78">
          <mxGeometry width="100" relative="1" as="geometry">
            <mxPoint x="452" y="290" as="sourcePoint" />
            <mxPoint x="480" y="282" as="targetPoint" />
            <Array as="points" />
          </mxGeometry>
        </mxCell>
        <mxCell id="192" value="" style="edgeStyle=elbowEdgeStyle;orthogonalLoop=1;jettySize=auto;html=1;rounded=0;exitX=0.666;exitY=0.52;exitDx=0;exitDy=0;exitPerimeter=0;entryDx=0;entryDy=0;entryPerimeter=0;elbow=vertical;endArrow=none;startFill=0;strokeWidth=2;entryX=0.096;entryY=0.816;" edge="1" parent="2" source="38" target="88">
          <mxGeometry width="100" relative="1" as="geometry">
            <mxPoint x="452" y="290" as="sourcePoint" />
            <mxPoint x="480" y="282" as="targetPoint" />
          </mxGeometry>
        </mxCell>
        <mxCell id="193" value="" style="edgeStyle=orthogonalEdgeStyle;orthogonalLoop=1;jettySize=auto;html=1;rounded=0;exitX=0;exitY=0.5;exitDx=0;exitDy=0;exitPerimeter=0;entryDx=0;entryDy=0;entryPerimeter=0;elbow=vertical;endArrow=none;startFill=0;strokeWidth=2;entryX=0.188;entryY=0.941;" edge="1" parent="2" source="29" target="34">
          <mxGeometry width="100" relative="1" as="geometry">
            <mxPoint x="280" y="288" as="sourcePoint" />
            <mxPoint x="308" y="280" as="targetPoint" />
            <Array as="points">
              <mxPoint x="262" y="272" />
            </Array>
          </mxGeometry>
        </mxCell>
        <mxCell id="194" value="" style="edgeStyle=orthogonalEdgeStyle;orthogonalLoop=1;jettySize=auto;html=1;rounded=0;exitX=0.5;exitY=0.4;exitDx=0;exitDy=0;exitPerimeter=0;entryDx=0;entryDy=0;entryPerimeter=0;elbow=vertical;endArrow=none;startFill=0;strokeWidth=2;entryX=0;entryY=0.5;" edge="1" parent="2" source="34" target="30">
          <mxGeometry width="100" relative="1" as="geometry">
            <mxPoint x="272" y="290" as="sourcePoint" />
            <mxPoint x="300" y="282" as="targetPoint" />
          </mxGeometry>
        </mxCell>
        <mxCell id="195" value="" style="edgeStyle=elbowEdgeStyle;orthogonalLoop=1;jettySize=auto;html=1;rounded=0;entryX=0.362;entryY=0.386;entryDx=0;entryDy=0;entryPerimeter=0;endArrow=none;startFill=0;exitDx=0;exitDy=0;jumpStyle=arc;strokeWidth=2;exitX=1;exitY=0.5;elbow=vertical;" edge="1" parent="2" source="20" target="75">
          <mxGeometry width="100" relative="1" as="geometry">
            <mxPoint x="154.99999999837019" y="212" as="sourcePoint" />
            <mxPoint x="200" y="211" as="targetPoint" />
          </mxGeometry>
        </mxCell>
        <mxCell id="196" value="" style="edgeStyle=none;orthogonalLoop=1;jettySize=auto;html=1;labelBackgroundColor=none;fontSize=10;startArrow=open;startFill=0;endArrow=classic;endFill=1;curved=1;dashed=1;rounded=0;strokeWidth=2;fontColor=light-dark(default, #ed333b);strokeColor=light-dark(#FF3333,#FF3333);" edge="1" parent="2">
          <mxGeometry width="80" relative="1" as="geometry">
            <mxPoint x="473" y="250" as="sourcePoint" />
            <mxPoint x="513" y="250" as="targetPoint" />
            <Array as="points" />
          </mxGeometry>
        </mxCell>
        <mxCell id="197" value="&lt;i&gt;i2Low&lt;/i&gt;" style="edgeLabel;html=1;align=center;verticalAlign=middle;resizable=0;points=[];fontSize=15;labelBackgroundColor=none;fontColor=light-dark(#FF3333,#FF3333);" connectable="0" vertex="1" parent="196">
          <mxGeometry x="0.52" y="-1" relative="1" as="geometry">
            <mxPoint x="-13" y="-16" as="offset" />
          </mxGeometry>
        </mxCell>
      </root>
    </mxGraphModel>
  </diagram>
</mxfile>
